ISO-10303-21;
HEADER;
/* Generated by software containing ST-Developer
 * from STEP Tools, Inc. (www.steptools.com) 
 */

FILE_DESCRIPTION(
/* description */ (''),
/* implementation_level */ '2;1');

FILE_NAME(
/* name */ 'trigger_box_body.step',
/* time_stamp */ '2026-08-06T17:44:14+02:00',
/* author */ (''),
/* organization */ (''),
/* preprocessor_version */ 'ST-DEVELOPER v20.1',
/* originating_system */ 'Autodesk Translation Framework v15.8.0.0',
/* authorisation */ '');

FILE_SCHEMA (('AUTOMOTIVE_DESIGN { 1 0 10303 214 3 1 1 }'));
ENDSEC;

DATA;
#10=MECHANICAL_DESIGN_GEOMETRIC_PRESENTATION_REPRESENTATION('',(#13),#1315);
#11=SHAPE_REPRESENTATION_RELATIONSHIP('SRR','None',#1322,#12);
#12=ADVANCED_BREP_SHAPE_REPRESENTATION('',(#14),#1314);
#13=STYLED_ITEM('',(#1331),#14);
#14=MANIFOLD_SOLID_BREP('trigger_system_box',#715);
#15=FACE_BOUND('',#130,.T.);
#16=FACE_BOUND('',#132,.T.);
#17=FACE_BOUND('',#138,.T.);
#18=FACE_BOUND('',#140,.T.);
#19=PLANE('',#748);
#20=PLANE('',#751);
#21=PLANE('',#754);
#22=PLANE('',#758);
#23=PLANE('',#759);
#24=PLANE('',#764);
#25=PLANE('',#765);
#26=PLANE('',#769);
#27=PLANE('',#770);
#28=PLANE('',#773);
#29=PLANE('',#774);
#30=PLANE('',#775);
#31=PLANE('',#776);
#32=PLANE('',#777);
#33=PLANE('',#780);
#34=PLANE('',#781);
#35=PLANE('',#783);
#36=PLANE('',#785);
#37=PLANE('',#786);
#38=PLANE('',#787);
#39=PLANE('',#788);
#40=PLANE('',#789);
#41=PLANE('',#790);
#42=PLANE('',#791);
#43=PLANE('',#792);
#44=ELLIPSE('',#733,5.14781507049349,4.5);
#45=ELLIPSE('',#734,5.1478150704935,4.5);
#46=ELLIPSE('',#736,5.14781507049349,4.5);
#47=ELLIPSE('',#737,5.14781507049349,4.5);
#48=ELLIPSE('',#739,5.1478150704935,4.5);
#49=ELLIPSE('',#740,5.14781507049349,4.5);
#50=ELLIPSE('',#742,5.1478150704935,4.5);
#51=ELLIPSE('',#743,5.1478150704935,4.5);
#52=B_SPLINE_SURFACE_WITH_KNOTS('',3,3,((#1002,#1003,#1004,#1005,#1006,
#1007),(#1008,#1009,#1010,#1011,#1012,#1013),(#1014,#1015,#1016,#1017,#1018,
#1019),(#1020,#1021,#1022,#1023,#1024,#1025),(#1026,#1027,#1028,#1029,#1030,
#1031)),.UNSPECIFIED.,.F.,.F.,.F.,(4,1,4),(4,1,1,4),(0.,0.571428571428571,
1.),(-1.5707963267949,-0.897597901025656,-0.448798950512828,0.),
 .UNSPECIFIED.);
#53=B_SPLINE_SURFACE_WITH_KNOTS('',3,3,((#1038,#1039,#1040,#1041,#1042,
#1043),(#1044,#1045,#1046,#1047,#1048,#1049),(#1050,#1051,#1052,#1053,#1054,
#1055),(#1056,#1057,#1058,#1059,#1060,#1061),(#1062,#1063,#1064,#1065,#1066,
#1067)),.UNSPECIFIED.,.F.,.F.,.F.,(4,1,4),(4,1,1,4),(0.,0.571428571428571,
1.),(-1.5707963267949,-0.897597901025655,-0.448798950512828,0.),
 .UNSPECIFIED.);
#54=B_SPLINE_SURFACE_WITH_KNOTS('',3,3,((#1074,#1075,#1076,#1077,#1078,
#1079),(#1080,#1081,#1082,#1083,#1084,#1085),(#1086,#1087,#1088,#1089,#1090,
#1091),(#1092,#1093,#1094,#1095,#1096,#1097),(#1098,#1099,#1100,#1101,#1102,
#1103)),.UNSPECIFIED.,.F.,.F.,.F.,(4,1,4),(4,1,1,4),(0.,0.571428571428571,
1.),(-1.5707963267949,-0.897597901025655,-0.448798950512828,0.),
 .UNSPECIFIED.);
#55=B_SPLINE_SURFACE_WITH_KNOTS('',3,3,((#1110,#1111,#1112,#1113,#1114,
#1115),(#1116,#1117,#1118,#1119,#1120,#1121),(#1122,#1123,#1124,#1125,#1126,
#1127),(#1128,#1129,#1130,#1131,#1132,#1133),(#1134,#1135,#1136,#1137,#1138,
#1139)),.UNSPECIFIED.,.F.,.F.,.F.,(4,1,4),(4,1,1,4),(0.,0.571428571428571,
1.),(-1.5707963267949,-0.897597901025655,-0.448798950512827,1.58994902291998E-16),
 .UNSPECIFIED.);
#56=FACE_OUTER_BOUND('',#98,.T.);
#57=FACE_OUTER_BOUND('',#99,.T.);
#58=FACE_OUTER_BOUND('',#100,.T.);
#59=FACE_OUTER_BOUND('',#101,.T.);
#60=FACE_OUTER_BOUND('',#102,.T.);
#61=FACE_OUTER_BOUND('',#103,.T.);
#62=FACE_OUTER_BOUND('',#104,.T.);
#63=FACE_OUTER_BOUND('',#105,.T.);
#64=FACE_OUTER_BOUND('',#106,.T.);
#65=FACE_OUTER_BOUND('',#107,.T.);
#66=FACE_OUTER_BOUND('',#108,.T.);
#67=FACE_OUTER_BOUND('',#109,.T.);
#68=FACE_OUTER_BOUND('',#110,.T.);
#69=FACE_OUTER_BOUND('',#111,.T.);
#70=FACE_OUTER_BOUND('',#112,.T.);
#71=FACE_OUTER_BOUND('',#113,.T.);
#72=FACE_OUTER_BOUND('',#114,.T.);
#73=FACE_OUTER_BOUND('',#115,.T.);
#74=FACE_OUTER_BOUND('',#116,.T.);
#75=FACE_OUTER_BOUND('',#117,.T.);
#76=FACE_OUTER_BOUND('',#118,.T.);
#77=FACE_OUTER_BOUND('',#119,.T.);
#78=FACE_OUTER_BOUND('',#120,.T.);
#79=FACE_OUTER_BOUND('',#121,.T.);
#80=FACE_OUTER_BOUND('',#122,.T.);
#81=FACE_OUTER_BOUND('',#123,.T.);
#82=FACE_OUTER_BOUND('',#124,.T.);
#83=FACE_OUTER_BOUND('',#125,.T.);
#84=FACE_OUTER_BOUND('',#126,.T.);
#85=FACE_OUTER_BOUND('',#127,.T.);
#86=FACE_OUTER_BOUND('',#128,.T.);
#87=FACE_OUTER_BOUND('',#129,.T.);
#88=FACE_OUTER_BOUND('',#131,.T.);
#89=FACE_OUTER_BOUND('',#133,.T.);
#90=FACE_OUTER_BOUND('',#134,.T.);
#91=FACE_OUTER_BOUND('',#135,.T.);
#92=FACE_OUTER_BOUND('',#136,.T.);
#93=FACE_OUTER_BOUND('',#137,.T.);
#94=FACE_OUTER_BOUND('',#139,.T.);
#95=FACE_OUTER_BOUND('',#141,.T.);
#96=FACE_OUTER_BOUND('',#142,.T.);
#97=FACE_OUTER_BOUND('',#143,.T.);
#98=EDGE_LOOP('',(#464,#465,#466,#467));
#99=EDGE_LOOP('',(#468,#469,#470));
#100=EDGE_LOOP('',(#471,#472,#473));
#101=EDGE_LOOP('',(#474,#475,#476));
#102=EDGE_LOOP('',(#477,#478,#479));
#103=EDGE_LOOP('',(#480,#481,#482,#483));
#104=EDGE_LOOP('',(#484,#485,#486,#487));
#105=EDGE_LOOP('',(#488,#489,#490,#491));
#106=EDGE_LOOP('',(#492,#493,#494,#495));
#107=EDGE_LOOP('',(#496,#497,#498,#499));
#108=EDGE_LOOP('',(#500,#501,#502,#503));
#109=EDGE_LOOP('',(#504,#505,#506,#507));
#110=EDGE_LOOP('',(#508,#509,#510,#511));
#111=EDGE_LOOP('',(#512,#513,#514,#515));
#112=EDGE_LOOP('',(#516,#517,#518,#519));
#113=EDGE_LOOP('',(#520,#521,#522,#523));
#114=EDGE_LOOP('',(#524,#525,#526,#527,#528,#529));
#115=EDGE_LOOP('',(#530,#531,#532,#533));
#116=EDGE_LOOP('',(#534,#535,#536,#537));
#117=EDGE_LOOP('',(#538,#539,#540,#541,#542,#543,#544,#545));
#118=EDGE_LOOP('',(#546,#547,#548,#549));
#119=EDGE_LOOP('',(#550,#551,#552,#553,#554,#555,#556));
#120=EDGE_LOOP('',(#557,#558,#559,#560));
#121=EDGE_LOOP('',(#561,#562,#563,#564));
#122=EDGE_LOOP('',(#565,#566,#567,#568));
#123=EDGE_LOOP('',(#569,#570,#571,#572));
#124=EDGE_LOOP('',(#573,#574,#575,#576));
#125=EDGE_LOOP('',(#577,#578,#579,#580,#581,#582));
#126=EDGE_LOOP('',(#583,#584,#585,#586));
#127=EDGE_LOOP('',(#587,#588,#589,#590));
#128=EDGE_LOOP('',(#591,#592,#593,#594));
#129=EDGE_LOOP('',(#595,#596,#597,#598,#599,#600,#601,#602));
#130=EDGE_LOOP('',(#603,#604,#605,#606));
#131=EDGE_LOOP('',(#607,#608,#609,#610));
#132=EDGE_LOOP('',(#611));
#133=EDGE_LOOP('',(#612,#613,#614,#615));
#134=EDGE_LOOP('',(#616,#617,#618,#619));
#135=EDGE_LOOP('',(#620,#621,#622,#623));
#136=EDGE_LOOP('',(#624,#625,#626,#627,#628));
#137=EDGE_LOOP('',(#629,#630,#631,#632));
#138=EDGE_LOOP('',(#633,#634,#635,#636,#637,#638,#639,#640));
#139=EDGE_LOOP('',(#641,#642,#643,#644));
#140=EDGE_LOOP('',(#645));
#141=EDGE_LOOP('',(#646,#647,#648,#649));
#142=EDGE_LOOP('',(#650,#651,#652,#653,#654,#655));
#143=EDGE_LOOP('',(#656,#657,#658,#659));
#144=LINE('',#1000,#216);
#145=LINE('',#1147,#217);
#146=LINE('',#1148,#218);
#147=LINE('',#1150,#219);
#148=LINE('',#1151,#220);
#149=LINE('',#1153,#221);
#150=LINE('',#1154,#222);
#151=LINE('',#1156,#223);
#152=LINE('',#1157,#224);
#153=LINE('',#1160,#225);
#154=LINE('',#1162,#226);
#155=LINE('',#1163,#227);
#156=LINE('',#1166,#228);
#157=LINE('',#1170,#229);
#158=LINE('',#1171,#230);
#159=LINE('',#1174,#231);
#160=LINE('',#1182,#232);
#161=LINE('',#1185,#233);
#162=LINE('',#1188,#234);
#163=LINE('',#1190,#235);
#164=LINE('',#1191,#236);
#165=LINE('',#1194,#237);
#166=LINE('',#1196,#238);
#167=LINE('',#1198,#239);
#168=LINE('',#1205,#240);
#169=LINE('',#1208,#241);
#170=LINE('',#1211,#242);
#171=LINE('',#1213,#243);
#172=LINE('',#1214,#244);
#173=LINE('',#1217,#245);
#174=LINE('',#1219,#246);
#175=LINE('',#1221,#247);
#176=LINE('',#1223,#248);
#177=LINE('',#1225,#249);
#178=LINE('',#1230,#250);
#179=LINE('',#1233,#251);
#180=LINE('',#1235,#252);
#181=LINE('',#1237,#253);
#182=LINE('',#1238,#254);
#183=LINE('',#1240,#255);
#184=LINE('',#1243,#256);
#185=LINE('',#1247,#257);
#186=LINE('',#1249,#258);
#187=LINE('',#1251,#259);
#188=LINE('',#1252,#260);
#189=LINE('',#1254,#261);
#190=LINE('',#1255,#262);
#191=LINE('',#1257,#263);
#192=LINE('',#1258,#264);
#193=LINE('',#1260,#265);
#194=LINE('',#1263,#266);
#195=LINE('',#1264,#267);
#196=LINE('',#1268,#268);
#197=LINE('',#1271,#269);
#198=LINE('',#1272,#270);
#199=LINE('',#1275,#271);
#200=LINE('',#1279,#272);
#201=LINE('',#1281,#273);
#202=LINE('',#1283,#274);
#203=LINE('',#1284,#275);
#204=LINE('',#1286,#276);
#205=LINE('',#1290,#277);
#206=LINE('',#1292,#278);
#207=LINE('',#1293,#279);
#208=LINE('',#1296,#280);
#209=LINE('',#1297,#281);
#210=LINE('',#1301,#282);
#211=LINE('',#1303,#283);
#212=LINE('',#1304,#284);
#213=LINE('',#1305,#285);
#214=LINE('',#1307,#286);
#215=LINE('',#1308,#287);
#216=VECTOR('',#799,4.);
#217=VECTOR('',#828,10.);
#218=VECTOR('',#829,10.);
#219=VECTOR('',#832,10.);
#220=VECTOR('',#833,10.);
#221=VECTOR('',#836,10.);
#222=VECTOR('',#837,10.);
#223=VECTOR('',#840,10.);
#224=VECTOR('',#841,10.);
#225=VECTOR('',#844,10.);
#226=VECTOR('',#845,10.);
#227=VECTOR('',#846,10.);
#228=VECTOR('',#849,10.);
#229=VECTOR('',#854,10.);
#230=VECTOR('',#855,10.);
#231=VECTOR('',#858,10.);
#232=VECTOR('',#867,10.);
#233=VECTOR('',#870,10.);
#234=VECTOR('',#873,10.);
#235=VECTOR('',#874,10.);
#236=VECTOR('',#875,10.);
#237=VECTOR('',#878,10.);
#238=VECTOR('',#879,10.);
#239=VECTOR('',#880,10.);
#240=VECTOR('',#887,10.);
#241=VECTOR('',#890,10.);
#242=VECTOR('',#893,10.);
#243=VECTOR('',#894,10.);
#244=VECTOR('',#895,10.);
#245=VECTOR('',#898,10.);
#246=VECTOR('',#899,10.);
#247=VECTOR('',#900,10.);
#248=VECTOR('',#901,10.);
#249=VECTOR('',#902,10.);
#250=VECTOR('',#909,10.);
#251=VECTOR('',#912,10.);
#252=VECTOR('',#913,10.);
#253=VECTOR('',#914,10.);
#254=VECTOR('',#915,10.);
#255=VECTOR('',#918,10.);
#256=VECTOR('',#921,10.);
#257=VECTOR('',#926,10.);
#258=VECTOR('',#927,10.);
#259=VECTOR('',#928,10.);
#260=VECTOR('',#929,10.);
#261=VECTOR('',#932,10.);
#262=VECTOR('',#933,10.);
#263=VECTOR('',#936,10.);
#264=VECTOR('',#937,10.);
#265=VECTOR('',#940,10.);
#266=VECTOR('',#943,10.);
#267=VECTOR('',#944,10.);
#268=VECTOR('',#949,10.);
#269=VECTOR('',#952,10.);
#270=VECTOR('',#953,10.);
#271=VECTOR('',#956,10.);
#272=VECTOR('',#959,10.);
#273=VECTOR('',#960,10.);
#274=VECTOR('',#961,10.);
#275=VECTOR('',#962,10.);
#276=VECTOR('',#965,10.);
#277=VECTOR('',#970,10.);
#278=VECTOR('',#971,10.);
#279=VECTOR('',#972,10.);
#280=VECTOR('',#975,10.);
#281=VECTOR('',#976,10.);
#282=VECTOR('',#981,10.);
#283=VECTOR('',#982,10.);
#284=VECTOR('',#983,10.);
#285=VECTOR('',#984,10.);
#286=VECTOR('',#987,10.);
#287=VECTOR('',#988,10.);
#288=CIRCLE('',#730,4.);
#289=CIRCLE('',#731,4.);
#290=CIRCLE('',#732,2.);
#291=CIRCLE('',#735,1.99999999999999);
#292=CIRCLE('',#738,1.99999999999999);
#293=CIRCLE('',#741,2.);
#294=CIRCLE('',#750,2.);
#295=CIRCLE('',#753,2.);
#296=CIRCLE('',#756,1.);
#297=CIRCLE('',#757,1.);
#298=CIRCLE('',#760,1.);
#299=CIRCLE('',#762,1.);
#300=CIRCLE('',#763,1.);
#301=CIRCLE('',#766,1.);
#302=CIRCLE('',#768,1.);
#303=CIRCLE('',#772,1.);
#304=CIRCLE('',#779,2.);
#305=CIRCLE('',#782,2.);
#306=VERTEX_POINT('',#997);
#307=VERTEX_POINT('',#999);
#308=VERTEX_POINT('',#1032);
#309=VERTEX_POINT('',#1033);
#310=VERTEX_POINT('',#1035);
#311=VERTEX_POINT('',#1068);
#312=VERTEX_POINT('',#1069);
#313=VERTEX_POINT('',#1071);
#314=VERTEX_POINT('',#1104);
#315=VERTEX_POINT('',#1105);
#316=VERTEX_POINT('',#1107);
#317=VERTEX_POINT('',#1140);
#318=VERTEX_POINT('',#1141);
#319=VERTEX_POINT('',#1143);
#320=VERTEX_POINT('',#1159);
#321=VERTEX_POINT('',#1161);
#322=VERTEX_POINT('',#1165);
#323=VERTEX_POINT('',#1169);
#324=VERTEX_POINT('',#1173);
#325=VERTEX_POINT('',#1178);
#326=VERTEX_POINT('',#1179);
#327=VERTEX_POINT('',#1181);
#328=VERTEX_POINT('',#1183);
#329=VERTEX_POINT('',#1187);
#330=VERTEX_POINT('',#1189);
#331=VERTEX_POINT('',#1193);
#332=VERTEX_POINT('',#1195);
#333=VERTEX_POINT('',#1197);
#334=VERTEX_POINT('',#1201);
#335=VERTEX_POINT('',#1202);
#336=VERTEX_POINT('',#1204);
#337=VERTEX_POINT('',#1206);
#338=VERTEX_POINT('',#1210);
#339=VERTEX_POINT('',#1212);
#340=VERTEX_POINT('',#1216);
#341=VERTEX_POINT('',#1218);
#342=VERTEX_POINT('',#1220);
#343=VERTEX_POINT('',#1222);
#344=VERTEX_POINT('',#1224);
#345=VERTEX_POINT('',#1228);
#346=VERTEX_POINT('',#1232);
#347=VERTEX_POINT('',#1234);
#348=VERTEX_POINT('',#1236);
#349=VERTEX_POINT('',#1242);
#350=VERTEX_POINT('',#1246);
#351=VERTEX_POINT('',#1248);
#352=VERTEX_POINT('',#1250);
#353=VERTEX_POINT('',#1262);
#354=VERTEX_POINT('',#1266);
#355=VERTEX_POINT('',#1270);
#356=VERTEX_POINT('',#1274);
#357=VERTEX_POINT('',#1277);
#358=VERTEX_POINT('',#1278);
#359=VERTEX_POINT('',#1280);
#360=VERTEX_POINT('',#1282);
#361=VERTEX_POINT('',#1289);
#362=VERTEX_POINT('',#1291);
#363=VERTEX_POINT('',#1295);
#364=VERTEX_POINT('',#1300);
#365=VERTEX_POINT('',#1302);
#366=EDGE_CURVE('',#306,#306,#288,.T.);
#367=EDGE_CURVE('',#306,#307,#144,.T.);
#368=EDGE_CURVE('',#307,#307,#289,.T.);
#369=EDGE_CURVE('',#308,#309,#290,.T.);
#370=EDGE_CURVE('',#309,#310,#44,.T.);
#371=EDGE_CURVE('',#310,#308,#45,.T.);
#372=EDGE_CURVE('',#311,#312,#291,.T.);
#373=EDGE_CURVE('',#312,#313,#46,.T.);
#374=EDGE_CURVE('',#313,#311,#47,.T.);
#375=EDGE_CURVE('',#314,#315,#292,.T.);
#376=EDGE_CURVE('',#315,#316,#48,.T.);
#377=EDGE_CURVE('',#316,#314,#49,.T.);
#378=EDGE_CURVE('',#317,#318,#293,.T.);
#379=EDGE_CURVE('',#318,#319,#50,.T.);
#380=EDGE_CURVE('',#319,#317,#51,.T.);
#381=EDGE_CURVE('',#310,#319,#145,.T.);
#382=EDGE_CURVE('',#318,#308,#146,.T.);
#383=EDGE_CURVE('',#315,#317,#147,.T.);
#384=EDGE_CURVE('',#319,#316,#148,.T.);
#385=EDGE_CURVE('',#312,#314,#149,.T.);
#386=EDGE_CURVE('',#316,#313,#150,.T.);
#387=EDGE_CURVE('',#309,#311,#151,.T.);
#388=EDGE_CURVE('',#313,#310,#152,.T.);
#389=EDGE_CURVE('',#320,#309,#153,.T.);
#390=EDGE_CURVE('',#320,#321,#154,.T.);
#391=EDGE_CURVE('',#311,#321,#155,.T.);
#392=EDGE_CURVE('',#308,#322,#156,.T.);
#393=EDGE_CURVE('',#322,#320,#294,.T.);
#394=EDGE_CURVE('',#323,#318,#157,.T.);
#395=EDGE_CURVE('',#323,#322,#158,.T.);
#396=EDGE_CURVE('',#317,#324,#159,.T.);
#397=EDGE_CURVE('',#324,#323,#295,.T.);
#398=EDGE_CURVE('',#325,#326,#296,.T.);
#399=EDGE_CURVE('',#326,#327,#160,.T.);
#400=EDGE_CURVE('',#327,#328,#297,.T.);
#401=EDGE_CURVE('',#328,#325,#161,.T.);
#402=EDGE_CURVE('',#329,#328,#162,.T.);
#403=EDGE_CURVE('',#330,#329,#163,.T.);
#404=EDGE_CURVE('',#325,#330,#164,.T.);
#405=EDGE_CURVE('',#331,#327,#165,.T.);
#406=EDGE_CURVE('',#332,#331,#166,.T.);
#407=EDGE_CURVE('',#333,#332,#167,.T.);
#408=EDGE_CURVE('',#329,#333,#298,.T.);
#409=EDGE_CURVE('',#334,#335,#299,.T.);
#410=EDGE_CURVE('',#335,#336,#168,.T.);
#411=EDGE_CURVE('',#336,#337,#300,.T.);
#412=EDGE_CURVE('',#337,#334,#169,.T.);
#413=EDGE_CURVE('',#338,#337,#170,.T.);
#414=EDGE_CURVE('',#339,#338,#171,.T.);
#415=EDGE_CURVE('',#334,#339,#172,.T.);
#416=EDGE_CURVE('',#340,#336,#173,.T.);
#417=EDGE_CURVE('',#340,#341,#174,.T.);
#418=EDGE_CURVE('',#341,#342,#175,.T.);
#419=EDGE_CURVE('',#343,#342,#176,.T.);
#420=EDGE_CURVE('',#343,#344,#177,.T.);
#421=EDGE_CURVE('',#338,#344,#301,.T.);
#422=EDGE_CURVE('',#345,#330,#302,.T.);
#423=EDGE_CURVE('',#333,#345,#178,.T.);
#424=EDGE_CURVE('',#345,#346,#179,.T.);
#425=EDGE_CURVE('',#346,#347,#180,.T.);
#426=EDGE_CURVE('',#347,#348,#181,.T.);
#427=EDGE_CURVE('',#326,#348,#182,.T.);
#428=EDGE_CURVE('',#346,#332,#183,.T.);
#429=EDGE_CURVE('',#344,#349,#184,.T.);
#430=EDGE_CURVE('',#349,#339,#303,.T.);
#431=EDGE_CURVE('',#331,#350,#185,.T.);
#432=EDGE_CURVE('',#331,#351,#186,.T.);
#433=EDGE_CURVE('',#351,#352,#187,.T.);
#434=EDGE_CURVE('',#350,#352,#188,.T.);
#435=EDGE_CURVE('',#350,#340,#189,.T.);
#436=EDGE_CURVE('',#352,#341,#190,.T.);
#437=EDGE_CURVE('',#343,#346,#191,.T.);
#438=EDGE_CURVE('',#342,#347,#192,.T.);
#439=EDGE_CURVE('',#348,#351,#193,.T.);
#440=EDGE_CURVE('',#353,#343,#194,.T.);
#441=EDGE_CURVE('',#353,#349,#195,.T.);
#442=EDGE_CURVE('',#321,#354,#304,.T.);
#443=EDGE_CURVE('',#354,#312,#196,.T.);
#444=EDGE_CURVE('',#354,#355,#197,.T.);
#445=EDGE_CURVE('',#314,#355,#198,.T.);
#446=EDGE_CURVE('',#356,#324,#199,.T.);
#447=EDGE_CURVE('',#355,#356,#305,.T.);
#448=EDGE_CURVE('',#357,#358,#200,.T.);
#449=EDGE_CURVE('',#359,#357,#201,.T.);
#450=EDGE_CURVE('',#359,#360,#202,.T.);
#451=EDGE_CURVE('',#360,#358,#203,.T.);
#452=EDGE_CURVE('',#356,#315,#204,.T.);
#453=EDGE_CURVE('',#358,#361,#205,.T.);
#454=EDGE_CURVE('',#361,#362,#206,.T.);
#455=EDGE_CURVE('',#362,#357,#207,.T.);
#456=EDGE_CURVE('',#363,#335,#208,.T.);
#457=EDGE_CURVE('',#340,#363,#209,.T.);
#458=EDGE_CURVE('',#361,#364,#210,.T.);
#459=EDGE_CURVE('',#365,#364,#211,.T.);
#460=EDGE_CURVE('',#362,#365,#212,.T.);
#461=EDGE_CURVE('',#363,#353,#213,.T.);
#462=EDGE_CURVE('',#364,#360,#214,.T.);
#463=EDGE_CURVE('',#365,#359,#215,.T.);
#464=ORIENTED_EDGE('',*,*,#366,.F.);
#465=ORIENTED_EDGE('',*,*,#367,.T.);
#466=ORIENTED_EDGE('',*,*,#368,.F.);
#467=ORIENTED_EDGE('',*,*,#367,.F.);
#468=ORIENTED_EDGE('',*,*,#369,.T.);
#469=ORIENTED_EDGE('',*,*,#370,.T.);
#470=ORIENTED_EDGE('',*,*,#371,.T.);
#471=ORIENTED_EDGE('',*,*,#372,.T.);
#472=ORIENTED_EDGE('',*,*,#373,.T.);
#473=ORIENTED_EDGE('',*,*,#374,.T.);
#474=ORIENTED_EDGE('',*,*,#375,.T.);
#475=ORIENTED_EDGE('',*,*,#376,.T.);
#476=ORIENTED_EDGE('',*,*,#377,.T.);
#477=ORIENTED_EDGE('',*,*,#378,.T.);
#478=ORIENTED_EDGE('',*,*,#379,.T.);
#479=ORIENTED_EDGE('',*,*,#380,.T.);
#480=ORIENTED_EDGE('',*,*,#371,.F.);
#481=ORIENTED_EDGE('',*,*,#381,.T.);
#482=ORIENTED_EDGE('',*,*,#379,.F.);
#483=ORIENTED_EDGE('',*,*,#382,.T.);
#484=ORIENTED_EDGE('',*,*,#376,.F.);
#485=ORIENTED_EDGE('',*,*,#383,.T.);
#486=ORIENTED_EDGE('',*,*,#380,.F.);
#487=ORIENTED_EDGE('',*,*,#384,.T.);
#488=ORIENTED_EDGE('',*,*,#373,.F.);
#489=ORIENTED_EDGE('',*,*,#385,.T.);
#490=ORIENTED_EDGE('',*,*,#377,.F.);
#491=ORIENTED_EDGE('',*,*,#386,.T.);
#492=ORIENTED_EDGE('',*,*,#370,.F.);
#493=ORIENTED_EDGE('',*,*,#387,.T.);
#494=ORIENTED_EDGE('',*,*,#374,.F.);
#495=ORIENTED_EDGE('',*,*,#388,.T.);
#496=ORIENTED_EDGE('',*,*,#387,.F.);
#497=ORIENTED_EDGE('',*,*,#389,.F.);
#498=ORIENTED_EDGE('',*,*,#390,.T.);
#499=ORIENTED_EDGE('',*,*,#391,.F.);
#500=ORIENTED_EDGE('',*,*,#369,.F.);
#501=ORIENTED_EDGE('',*,*,#392,.T.);
#502=ORIENTED_EDGE('',*,*,#393,.T.);
#503=ORIENTED_EDGE('',*,*,#389,.T.);
#504=ORIENTED_EDGE('',*,*,#382,.F.);
#505=ORIENTED_EDGE('',*,*,#394,.F.);
#506=ORIENTED_EDGE('',*,*,#395,.T.);
#507=ORIENTED_EDGE('',*,*,#392,.F.);
#508=ORIENTED_EDGE('',*,*,#378,.F.);
#509=ORIENTED_EDGE('',*,*,#396,.T.);
#510=ORIENTED_EDGE('',*,*,#397,.T.);
#511=ORIENTED_EDGE('',*,*,#394,.T.);
#512=ORIENTED_EDGE('',*,*,#381,.F.);
#513=ORIENTED_EDGE('',*,*,#388,.F.);
#514=ORIENTED_EDGE('',*,*,#386,.F.);
#515=ORIENTED_EDGE('',*,*,#384,.F.);
#516=ORIENTED_EDGE('',*,*,#398,.T.);
#517=ORIENTED_EDGE('',*,*,#399,.T.);
#518=ORIENTED_EDGE('',*,*,#400,.T.);
#519=ORIENTED_EDGE('',*,*,#401,.T.);
#520=ORIENTED_EDGE('',*,*,#401,.F.);
#521=ORIENTED_EDGE('',*,*,#402,.F.);
#522=ORIENTED_EDGE('',*,*,#403,.F.);
#523=ORIENTED_EDGE('',*,*,#404,.F.);
#524=ORIENTED_EDGE('',*,*,#400,.F.);
#525=ORIENTED_EDGE('',*,*,#405,.F.);
#526=ORIENTED_EDGE('',*,*,#406,.F.);
#527=ORIENTED_EDGE('',*,*,#407,.F.);
#528=ORIENTED_EDGE('',*,*,#408,.F.);
#529=ORIENTED_EDGE('',*,*,#402,.T.);
#530=ORIENTED_EDGE('',*,*,#409,.T.);
#531=ORIENTED_EDGE('',*,*,#410,.T.);
#532=ORIENTED_EDGE('',*,*,#411,.T.);
#533=ORIENTED_EDGE('',*,*,#412,.T.);
#534=ORIENTED_EDGE('',*,*,#412,.F.);
#535=ORIENTED_EDGE('',*,*,#413,.F.);
#536=ORIENTED_EDGE('',*,*,#414,.F.);
#537=ORIENTED_EDGE('',*,*,#415,.F.);
#538=ORIENTED_EDGE('',*,*,#411,.F.);
#539=ORIENTED_EDGE('',*,*,#416,.F.);
#540=ORIENTED_EDGE('',*,*,#417,.T.);
#541=ORIENTED_EDGE('',*,*,#418,.T.);
#542=ORIENTED_EDGE('',*,*,#419,.F.);
#543=ORIENTED_EDGE('',*,*,#420,.T.);
#544=ORIENTED_EDGE('',*,*,#421,.F.);
#545=ORIENTED_EDGE('',*,*,#413,.T.);
#546=ORIENTED_EDGE('',*,*,#422,.T.);
#547=ORIENTED_EDGE('',*,*,#403,.T.);
#548=ORIENTED_EDGE('',*,*,#408,.T.);
#549=ORIENTED_EDGE('',*,*,#423,.T.);
#550=ORIENTED_EDGE('',*,*,#398,.F.);
#551=ORIENTED_EDGE('',*,*,#404,.T.);
#552=ORIENTED_EDGE('',*,*,#422,.F.);
#553=ORIENTED_EDGE('',*,*,#424,.T.);
#554=ORIENTED_EDGE('',*,*,#425,.T.);
#555=ORIENTED_EDGE('',*,*,#426,.T.);
#556=ORIENTED_EDGE('',*,*,#427,.F.);
#557=ORIENTED_EDGE('',*,*,#423,.F.);
#558=ORIENTED_EDGE('',*,*,#407,.T.);
#559=ORIENTED_EDGE('',*,*,#428,.F.);
#560=ORIENTED_EDGE('',*,*,#424,.F.);
#561=ORIENTED_EDGE('',*,*,#421,.T.);
#562=ORIENTED_EDGE('',*,*,#429,.T.);
#563=ORIENTED_EDGE('',*,*,#430,.T.);
#564=ORIENTED_EDGE('',*,*,#414,.T.);
#565=ORIENTED_EDGE('',*,*,#431,.F.);
#566=ORIENTED_EDGE('',*,*,#432,.T.);
#567=ORIENTED_EDGE('',*,*,#433,.T.);
#568=ORIENTED_EDGE('',*,*,#434,.F.);
#569=ORIENTED_EDGE('',*,*,#435,.F.);
#570=ORIENTED_EDGE('',*,*,#434,.T.);
#571=ORIENTED_EDGE('',*,*,#436,.T.);
#572=ORIENTED_EDGE('',*,*,#417,.F.);
#573=ORIENTED_EDGE('',*,*,#437,.F.);
#574=ORIENTED_EDGE('',*,*,#419,.T.);
#575=ORIENTED_EDGE('',*,*,#438,.T.);
#576=ORIENTED_EDGE('',*,*,#425,.F.);
#577=ORIENTED_EDGE('',*,*,#438,.F.);
#578=ORIENTED_EDGE('',*,*,#418,.F.);
#579=ORIENTED_EDGE('',*,*,#436,.F.);
#580=ORIENTED_EDGE('',*,*,#433,.F.);
#581=ORIENTED_EDGE('',*,*,#439,.F.);
#582=ORIENTED_EDGE('',*,*,#426,.F.);
#583=ORIENTED_EDGE('',*,*,#429,.F.);
#584=ORIENTED_EDGE('',*,*,#420,.F.);
#585=ORIENTED_EDGE('',*,*,#440,.F.);
#586=ORIENTED_EDGE('',*,*,#441,.T.);
#587=ORIENTED_EDGE('',*,*,#372,.F.);
#588=ORIENTED_EDGE('',*,*,#391,.T.);
#589=ORIENTED_EDGE('',*,*,#442,.T.);
#590=ORIENTED_EDGE('',*,*,#443,.T.);
#591=ORIENTED_EDGE('',*,*,#385,.F.);
#592=ORIENTED_EDGE('',*,*,#443,.F.);
#593=ORIENTED_EDGE('',*,*,#444,.T.);
#594=ORIENTED_EDGE('',*,*,#445,.F.);
#595=ORIENTED_EDGE('',*,*,#393,.F.);
#596=ORIENTED_EDGE('',*,*,#395,.F.);
#597=ORIENTED_EDGE('',*,*,#397,.F.);
#598=ORIENTED_EDGE('',*,*,#446,.F.);
#599=ORIENTED_EDGE('',*,*,#447,.F.);
#600=ORIENTED_EDGE('',*,*,#444,.F.);
#601=ORIENTED_EDGE('',*,*,#442,.F.);
#602=ORIENTED_EDGE('',*,*,#390,.F.);
#603=ORIENTED_EDGE('',*,*,#448,.F.);
#604=ORIENTED_EDGE('',*,*,#449,.F.);
#605=ORIENTED_EDGE('',*,*,#450,.T.);
#606=ORIENTED_EDGE('',*,*,#451,.T.);
#607=ORIENTED_EDGE('',*,*,#383,.F.);
#608=ORIENTED_EDGE('',*,*,#452,.F.);
#609=ORIENTED_EDGE('',*,*,#446,.T.);
#610=ORIENTED_EDGE('',*,*,#396,.F.);
#611=ORIENTED_EDGE('',*,*,#368,.T.);
#612=ORIENTED_EDGE('',*,*,#375,.F.);
#613=ORIENTED_EDGE('',*,*,#445,.T.);
#614=ORIENTED_EDGE('',*,*,#447,.T.);
#615=ORIENTED_EDGE('',*,*,#452,.T.);
#616=ORIENTED_EDGE('',*,*,#448,.T.);
#617=ORIENTED_EDGE('',*,*,#453,.T.);
#618=ORIENTED_EDGE('',*,*,#454,.T.);
#619=ORIENTED_EDGE('',*,*,#455,.T.);
#620=ORIENTED_EDGE('',*,*,#410,.F.);
#621=ORIENTED_EDGE('',*,*,#456,.F.);
#622=ORIENTED_EDGE('',*,*,#457,.F.);
#623=ORIENTED_EDGE('',*,*,#416,.T.);
#624=ORIENTED_EDGE('',*,*,#399,.F.);
#625=ORIENTED_EDGE('',*,*,#427,.T.);
#626=ORIENTED_EDGE('',*,*,#439,.T.);
#627=ORIENTED_EDGE('',*,*,#432,.F.);
#628=ORIENTED_EDGE('',*,*,#405,.T.);
#629=ORIENTED_EDGE('',*,*,#454,.F.);
#630=ORIENTED_EDGE('',*,*,#458,.T.);
#631=ORIENTED_EDGE('',*,*,#459,.F.);
#632=ORIENTED_EDGE('',*,*,#460,.F.);
#633=ORIENTED_EDGE('',*,*,#435,.T.);
#634=ORIENTED_EDGE('',*,*,#457,.T.);
#635=ORIENTED_EDGE('',*,*,#461,.T.);
#636=ORIENTED_EDGE('',*,*,#440,.T.);
#637=ORIENTED_EDGE('',*,*,#437,.T.);
#638=ORIENTED_EDGE('',*,*,#428,.T.);
#639=ORIENTED_EDGE('',*,*,#406,.T.);
#640=ORIENTED_EDGE('',*,*,#431,.T.);
#641=ORIENTED_EDGE('',*,*,#459,.T.);
#642=ORIENTED_EDGE('',*,*,#462,.T.);
#643=ORIENTED_EDGE('',*,*,#450,.F.);
#644=ORIENTED_EDGE('',*,*,#463,.F.);
#645=ORIENTED_EDGE('',*,*,#366,.T.);
#646=ORIENTED_EDGE('',*,*,#451,.F.);
#647=ORIENTED_EDGE('',*,*,#462,.F.);
#648=ORIENTED_EDGE('',*,*,#458,.F.);
#649=ORIENTED_EDGE('',*,*,#453,.F.);
#650=ORIENTED_EDGE('',*,*,#409,.F.);
#651=ORIENTED_EDGE('',*,*,#415,.T.);
#652=ORIENTED_EDGE('',*,*,#430,.F.);
#653=ORIENTED_EDGE('',*,*,#441,.F.);
#654=ORIENTED_EDGE('',*,*,#461,.F.);
#655=ORIENTED_EDGE('',*,*,#456,.T.);
#656=ORIENTED_EDGE('',*,*,#449,.T.);
#657=ORIENTED_EDGE('',*,*,#455,.F.);
#658=ORIENTED_EDGE('',*,*,#460,.T.);
#659=ORIENTED_EDGE('',*,*,#463,.T.);
#660=CYLINDRICAL_SURFACE('',#729,4.);
#661=CYLINDRICAL_SURFACE('',#744,4.5);
#662=CYLINDRICAL_SURFACE('',#745,4.5);
#663=CYLINDRICAL_SURFACE('',#746,4.5);
#664=CYLINDRICAL_SURFACE('',#747,4.5);
#665=CYLINDRICAL_SURFACE('',#749,2.);
#666=CYLINDRICAL_SURFACE('',#752,2.);
#667=CYLINDRICAL_SURFACE('',#755,1.);
#668=CYLINDRICAL_SURFACE('',#761,1.);
#669=CYLINDRICAL_SURFACE('',#767,1.);
#670=CYLINDRICAL_SURFACE('',#771,1.);
#671=CYLINDRICAL_SURFACE('',#778,2.);
#672=CYLINDRICAL_SURFACE('',#784,2.);
#673=ADVANCED_FACE('',(#56),#660,.F.);
#674=ADVANCED_FACE('',(#57),#52,.F.);
#675=ADVANCED_FACE('',(#58),#53,.F.);
#676=ADVANCED_FACE('',(#59),#54,.F.);
#677=ADVANCED_FACE('',(#60),#55,.F.);
#678=ADVANCED_FACE('',(#61),#661,.T.);
#679=ADVANCED_FACE('',(#62),#662,.T.);
#680=ADVANCED_FACE('',(#63),#663,.T.);
#681=ADVANCED_FACE('',(#64),#664,.T.);
#682=ADVANCED_FACE('',(#65),#19,.T.);
#683=ADVANCED_FACE('',(#66),#665,.T.);
#684=ADVANCED_FACE('',(#67),#20,.T.);
#685=ADVANCED_FACE('',(#68),#666,.T.);
#686=ADVANCED_FACE('',(#69),#21,.F.);
#687=ADVANCED_FACE('',(#70),#667,.T.);
#688=ADVANCED_FACE('',(#71),#22,.F.);
#689=ADVANCED_FACE('',(#72),#23,.F.);
#690=ADVANCED_FACE('',(#73),#668,.T.);
#691=ADVANCED_FACE('',(#74),#24,.F.);
#692=ADVANCED_FACE('',(#75),#25,.F.);
#693=ADVANCED_FACE('',(#76),#669,.T.);
#694=ADVANCED_FACE('',(#77),#26,.T.);
#695=ADVANCED_FACE('',(#78),#27,.T.);
#696=ADVANCED_FACE('',(#79),#670,.T.);
#697=ADVANCED_FACE('',(#80),#28,.F.);
#698=ADVANCED_FACE('',(#81),#29,.F.);
#699=ADVANCED_FACE('',(#82),#30,.F.);
#700=ADVANCED_FACE('',(#83),#31,.F.);
#701=ADVANCED_FACE('',(#84),#32,.T.);
#702=ADVANCED_FACE('',(#85),#671,.T.);
#703=ADVANCED_FACE('',(#86),#33,.T.);
#704=ADVANCED_FACE('',(#87,#15),#34,.F.);
#705=ADVANCED_FACE('',(#88,#16),#35,.T.);
#706=ADVANCED_FACE('',(#89),#672,.T.);
#707=ADVANCED_FACE('',(#90),#36,.F.);
#708=ADVANCED_FACE('',(#91),#37,.F.);
#709=ADVANCED_FACE('',(#92),#38,.T.);
#710=ADVANCED_FACE('',(#93,#17),#39,.T.);
#711=ADVANCED_FACE('',(#94,#18),#40,.F.);
#712=ADVANCED_FACE('',(#95),#41,.F.);
#713=ADVANCED_FACE('',(#96),#42,.T.);
#714=ADVANCED_FACE('',(#97),#43,.F.);
#715=CLOSED_SHELL('',(#673,#674,#675,#676,#677,#678,#679,#680,#681,#682,
#683,#684,#685,#686,#687,#688,#689,#690,#691,#692,#693,#694,#695,#696,#697,
#698,#699,#700,#701,#702,#703,#704,#705,#706,#707,#708,#709,#710,#711,#712,
#713,#714));
#716=DERIVED_UNIT_ELEMENT(#718,1.);
#717=DERIVED_UNIT_ELEMENT(#1317,-3.);
#718=(
MASS_UNIT()
NAMED_UNIT(*)
SI_UNIT(.KILO.,.GRAM.)
);
#719=DERIVED_UNIT((#716,#717));
#720=MEASURE_REPRESENTATION_ITEM('density measure',
POSITIVE_RATIO_MEASURE(7850.),#719);
#721=PROPERTY_DEFINITION_REPRESENTATION(#726,#723);
#722=PROPERTY_DEFINITION_REPRESENTATION(#727,#724);
#723=REPRESENTATION('material name',(#725),#1314);
#724=REPRESENTATION('density',(#720),#1314);
#725=DESCRIPTIVE_REPRESENTATION_ITEM('Steel','Steel');
#726=PROPERTY_DEFINITION('material property','material name',#1324);
#727=PROPERTY_DEFINITION('material property','density of part',#1324);
#728=AXIS2_PLACEMENT_3D('',#995,#793,#794);
#729=AXIS2_PLACEMENT_3D('',#996,#795,#796);
#730=AXIS2_PLACEMENT_3D('',#998,#797,#798);
#731=AXIS2_PLACEMENT_3D('',#1001,#800,#801);
#732=AXIS2_PLACEMENT_3D('',#1034,#802,#803);
#733=AXIS2_PLACEMENT_3D('',#1036,#804,#805);
#734=AXIS2_PLACEMENT_3D('',#1037,#806,#807);
#735=AXIS2_PLACEMENT_3D('',#1070,#808,#809);
#736=AXIS2_PLACEMENT_3D('',#1072,#810,#811);
#737=AXIS2_PLACEMENT_3D('',#1073,#812,#813);
#738=AXIS2_PLACEMENT_3D('',#1106,#814,#815);
#739=AXIS2_PLACEMENT_3D('',#1108,#816,#817);
#740=AXIS2_PLACEMENT_3D('',#1109,#818,#819);
#741=AXIS2_PLACEMENT_3D('',#1142,#820,#821);
#742=AXIS2_PLACEMENT_3D('',#1144,#822,#823);
#743=AXIS2_PLACEMENT_3D('',#1145,#824,#825);
#744=AXIS2_PLACEMENT_3D('',#1146,#826,#827);
#745=AXIS2_PLACEMENT_3D('',#1149,#830,#831);
#746=AXIS2_PLACEMENT_3D('',#1152,#834,#835);
#747=AXIS2_PLACEMENT_3D('',#1155,#838,#839);
#748=AXIS2_PLACEMENT_3D('',#1158,#842,#843);
#749=AXIS2_PLACEMENT_3D('',#1164,#847,#848);
#750=AXIS2_PLACEMENT_3D('',#1167,#850,#851);
#751=AXIS2_PLACEMENT_3D('',#1168,#852,#853);
#752=AXIS2_PLACEMENT_3D('',#1172,#856,#857);
#753=AXIS2_PLACEMENT_3D('',#1175,#859,#860);
#754=AXIS2_PLACEMENT_3D('',#1176,#861,#862);
#755=AXIS2_PLACEMENT_3D('',#1177,#863,#864);
#756=AXIS2_PLACEMENT_3D('',#1180,#865,#866);
#757=AXIS2_PLACEMENT_3D('',#1184,#868,#869);
#758=AXIS2_PLACEMENT_3D('',#1186,#871,#872);
#759=AXIS2_PLACEMENT_3D('',#1192,#876,#877);
#760=AXIS2_PLACEMENT_3D('',#1199,#881,#882);
#761=AXIS2_PLACEMENT_3D('',#1200,#883,#884);
#762=AXIS2_PLACEMENT_3D('',#1203,#885,#886);
#763=AXIS2_PLACEMENT_3D('',#1207,#888,#889);
#764=AXIS2_PLACEMENT_3D('',#1209,#891,#892);
#765=AXIS2_PLACEMENT_3D('',#1215,#896,#897);
#766=AXIS2_PLACEMENT_3D('',#1226,#903,#904);
#767=AXIS2_PLACEMENT_3D('',#1227,#905,#906);
#768=AXIS2_PLACEMENT_3D('',#1229,#907,#908);
#769=AXIS2_PLACEMENT_3D('',#1231,#910,#911);
#770=AXIS2_PLACEMENT_3D('',#1239,#916,#917);
#771=AXIS2_PLACEMENT_3D('',#1241,#919,#920);
#772=AXIS2_PLACEMENT_3D('',#1244,#922,#923);
#773=AXIS2_PLACEMENT_3D('',#1245,#924,#925);
#774=AXIS2_PLACEMENT_3D('',#1253,#930,#931);
#775=AXIS2_PLACEMENT_3D('',#1256,#934,#935);
#776=AXIS2_PLACEMENT_3D('',#1259,#938,#939);
#777=AXIS2_PLACEMENT_3D('',#1261,#941,#942);
#778=AXIS2_PLACEMENT_3D('',#1265,#945,#946);
#779=AXIS2_PLACEMENT_3D('',#1267,#947,#948);
#780=AXIS2_PLACEMENT_3D('',#1269,#950,#951);
#781=AXIS2_PLACEMENT_3D('',#1273,#954,#955);
#782=AXIS2_PLACEMENT_3D('',#1276,#957,#958);
#783=AXIS2_PLACEMENT_3D('',#1285,#963,#964);
#784=AXIS2_PLACEMENT_3D('',#1287,#966,#967);
#785=AXIS2_PLACEMENT_3D('',#1288,#968,#969);
#786=AXIS2_PLACEMENT_3D('',#1294,#973,#974);
#787=AXIS2_PLACEMENT_3D('',#1298,#977,#978);
#788=AXIS2_PLACEMENT_3D('',#1299,#979,#980);
#789=AXIS2_PLACEMENT_3D('',#1306,#985,#986);
#790=AXIS2_PLACEMENT_3D('',#1309,#989,#990);
#791=AXIS2_PLACEMENT_3D('',#1310,#991,#992);
#792=AXIS2_PLACEMENT_3D('',#1311,#993,#994);
#793=DIRECTION('axis',(0.,0.,1.));
#794=DIRECTION('refdir',(1.,0.,0.));
#795=DIRECTION('center_axis',(-1.,0.,0.));
#796=DIRECTION('ref_axis',(0.,1.,0.));
#797=DIRECTION('center_axis',(-1.,0.,0.));
#798=DIRECTION('ref_axis',(0.,1.,0.));
#799=DIRECTION('',(-1.,0.,0.));
#800=DIRECTION('center_axis',(1.,0.,0.));
#801=DIRECTION('ref_axis',(0.,1.,0.));
#802=DIRECTION('center_axis',(0.,0.,-1.));
#803=DIRECTION('ref_axis',(0.,1.,0.));
#804=DIRECTION('center_axis',(-0.48564293117863,0.874157276121539,0.));
#805=DIRECTION('ref_axis',(0.874157276121539,0.48564293117863,0.));
#806=DIRECTION('center_axis',(0.874157276121538,-0.485642931178632,1.67742388781634E-15));
#807=DIRECTION('ref_axis',(0.485642931178632,0.874157276121538,0.));
#808=DIRECTION('center_axis',(0.,0.,-1.));
#809=DIRECTION('ref_axis',(1.,0.,0.));
#810=DIRECTION('center_axis',(0.874157276121537,0.485642931178633,0.));
#811=DIRECTION('ref_axis',(0.485642931178633,-0.874157276121537,0.));
#812=DIRECTION('center_axis',(-0.485642931178633,-0.874157276121537,0.));
#813=DIRECTION('ref_axis',(0.874157276121537,-0.485642931178633,0.));
#814=DIRECTION('center_axis',(0.,0.,-1.));
#815=DIRECTION('ref_axis',(5.5511151231258E-16,-1.,0.));
#816=DIRECTION('center_axis',(0.485642931178632,-0.874157276121538,0.));
#817=DIRECTION('ref_axis',(-0.874157276121538,-0.485642931178632,0.));
#818=DIRECTION('center_axis',(-0.874157276121537,0.485642931178633,0.));
#819=DIRECTION('ref_axis',(-0.485642931178633,-0.874157276121537,0.));
#820=DIRECTION('center_axis',(2.7755575615629E-16,-2.77555756156288E-16,
-1.));
#821=DIRECTION('ref_axis',(-1.,-2.22044604925031E-15,-2.77555756156289E-16));
#822=DIRECTION('center_axis',(-0.874157276121538,-0.485642931178632,0.));
#823=DIRECTION('ref_axis',(-0.485642931178632,0.874157276121538,-2.15668785576387E-16));
#824=DIRECTION('center_axis',(0.485642931178632,0.874157276121538,1.73733188380978E-15));
#825=DIRECTION('ref_axis',(-0.874157276121538,0.485642931178632,-2.15668785576387E-16));
#826=DIRECTION('center_axis',(-1.,0.,0.));
#827=DIRECTION('ref_axis',(0.,0.707106781186548,-0.707106781186547));
#828=DIRECTION('',(-1.,0.,0.));
#829=DIRECTION('',(1.,0.,0.));
#830=DIRECTION('center_axis',(0.,1.,0.));
#831=DIRECTION('ref_axis',(-0.707106781186548,0.,-0.707106781186547));
#832=DIRECTION('',(0.,1.,0.));
#833=DIRECTION('',(0.,-1.,0.));
#834=DIRECTION('center_axis',(-1.,0.,0.));
#835=DIRECTION('ref_axis',(0.,-0.707106781186547,-0.707106781186548));
#836=DIRECTION('',(-1.,0.,0.));
#837=DIRECTION('',(1.,0.,0.));
#838=DIRECTION('center_axis',(0.,-1.,0.));
#839=DIRECTION('ref_axis',(0.707106781186547,0.,-0.707106781186548));
#840=DIRECTION('',(0.,-1.,0.));
#841=DIRECTION('',(0.,1.,0.));
#842=DIRECTION('center_axis',(1.,0.,0.));
#843=DIRECTION('ref_axis',(0.,1.,0.));
#844=DIRECTION('',(0.,0.,-1.));
#845=DIRECTION('',(0.,-1.,0.));
#846=DIRECTION('',(0.,0.,1.));
#847=DIRECTION('center_axis',(0.,0.,-1.));
#848=DIRECTION('ref_axis',(0.707106781186548,0.707106781186548,0.));
#849=DIRECTION('',(0.,0.,1.));
#850=DIRECTION('center_axis',(0.,0.,-1.));
#851=DIRECTION('ref_axis',(0.707106781186548,0.707106781186548,0.));
#852=DIRECTION('center_axis',(0.,1.,0.));
#853=DIRECTION('ref_axis',(0.,0.,1.));
#854=DIRECTION('',(0.,0.,-1.));
#855=DIRECTION('',(1.,0.,0.));
#856=DIRECTION('center_axis',(0.,0.,1.));
#857=DIRECTION('ref_axis',(-0.707106781186548,0.707106781186547,0.));
#858=DIRECTION('',(0.,0.,1.));
#859=DIRECTION('center_axis',(0.,0.,-1.));
#860=DIRECTION('ref_axis',(-0.707106781186548,0.707106781186547,0.));
#861=DIRECTION('center_axis',(0.,0.,1.));
#862=DIRECTION('ref_axis',(1.,0.,0.));
#863=DIRECTION('center_axis',(0.,-1.,0.));
#864=DIRECTION('ref_axis',(0.707106781186541,0.,0.707106781186554));
#865=DIRECTION('center_axis',(0.,1.,0.));
#866=DIRECTION('ref_axis',(0.707106781186541,0.,0.707106781186554));
#867=DIRECTION('',(0.,1.,0.));
#868=DIRECTION('center_axis',(0.,-1.,0.));
#869=DIRECTION('ref_axis',(0.707106781186541,0.,0.707106781186554));
#870=DIRECTION('',(0.,-1.,0.));
#871=DIRECTION('center_axis',(0.,0.,-1.));
#872=DIRECTION('ref_axis',(-1.,0.,0.));
#873=DIRECTION('',(1.,0.,0.));
#874=DIRECTION('',(0.,1.,0.));
#875=DIRECTION('',(-1.,0.,0.));
#876=DIRECTION('center_axis',(0.,-1.,0.));
#877=DIRECTION('ref_axis',(0.,0.,-1.));
#878=DIRECTION('',(0.,0.,1.));
#879=DIRECTION('',(1.,0.,0.));
#880=DIRECTION('',(0.,0.,-1.));
#881=DIRECTION('center_axis',(0.,-1.,0.));
#882=DIRECTION('ref_axis',(-0.707106781186551,0.,0.707106781186544));
#883=DIRECTION('center_axis',(0.,-1.,0.));
#884=DIRECTION('ref_axis',(0.707106781186554,0.,0.707106781186541));
#885=DIRECTION('center_axis',(0.,1.,0.));
#886=DIRECTION('ref_axis',(0.707106781186554,0.,0.707106781186541));
#887=DIRECTION('',(0.,1.,0.));
#888=DIRECTION('center_axis',(0.,-1.,0.));
#889=DIRECTION('ref_axis',(0.707106781186554,0.,0.707106781186541));
#890=DIRECTION('',(0.,-1.,0.));
#891=DIRECTION('center_axis',(0.,0.,-1.));
#892=DIRECTION('ref_axis',(-1.,0.,0.));
#893=DIRECTION('',(1.,0.,0.));
#894=DIRECTION('',(0.,1.,0.));
#895=DIRECTION('',(-1.,0.,0.));
#896=DIRECTION('center_axis',(0.,-1.,0.));
#897=DIRECTION('ref_axis',(1.,0.,0.));
#898=DIRECTION('',(0.,0.,1.));
#899=DIRECTION('',(0.,0.,-1.));
#900=DIRECTION('',(-1.,0.,0.));
#901=DIRECTION('',(0.,0.,-1.));
#902=DIRECTION('',(0.,0.,1.));
#903=DIRECTION('center_axis',(0.,-1.,0.));
#904=DIRECTION('ref_axis',(-0.707106781186548,0.,0.707106781186548));
#905=DIRECTION('center_axis',(0.,-1.,0.));
#906=DIRECTION('ref_axis',(-0.707106781186551,0.,0.707106781186544));
#907=DIRECTION('center_axis',(0.,1.,0.));
#908=DIRECTION('ref_axis',(-0.707106781186551,0.,0.707106781186544));
#909=DIRECTION('',(0.,-1.,0.));
#910=DIRECTION('center_axis',(0.,-1.,0.));
#911=DIRECTION('ref_axis',(0.,0.,-1.));
#912=DIRECTION('',(0.,0.,-1.));
#913=DIRECTION('',(0.,0.,-1.));
#914=DIRECTION('',(1.,0.,0.));
#915=DIRECTION('',(0.,0.,-1.));
#916=DIRECTION('center_axis',(-1.,0.,0.));
#917=DIRECTION('ref_axis',(0.,0.,1.));
#918=DIRECTION('',(0.,1.,0.));
#919=DIRECTION('center_axis',(0.,1.,0.));
#920=DIRECTION('ref_axis',(-0.707106781186548,0.,0.707106781186548));
#921=DIRECTION('',(0.,-1.,0.));
#922=DIRECTION('center_axis',(0.,1.,0.));
#923=DIRECTION('ref_axis',(-0.707106781186548,0.,0.707106781186548));
#924=DIRECTION('center_axis',(0.,1.,0.));
#925=DIRECTION('ref_axis',(1.,0.,0.));
#926=DIRECTION('',(1.,0.,0.));
#927=DIRECTION('',(0.,0.,-1.));
#928=DIRECTION('',(1.,0.,0.));
#929=DIRECTION('',(0.,0.,-1.));
#930=DIRECTION('center_axis',(1.,0.,0.));
#931=DIRECTION('ref_axis',(0.,-1.,0.));
#932=DIRECTION('',(2.22044604925031E-16,-1.,0.));
#933=DIRECTION('',(0.,-1.,0.));
#934=DIRECTION('center_axis',(-1.,0.,0.));
#935=DIRECTION('ref_axis',(0.,1.,0.));
#936=DIRECTION('',(0.,1.,0.));
#937=DIRECTION('',(0.,1.,0.));
#938=DIRECTION('center_axis',(0.,0.,-1.));
#939=DIRECTION('ref_axis',(-1.,0.,0.));
#940=DIRECTION('',(0.,1.,0.));
#941=DIRECTION('center_axis',(-1.,0.,0.));
#942=DIRECTION('ref_axis',(0.,0.,1.));
#943=DIRECTION('',(0.,1.,0.));
#944=DIRECTION('',(0.,0.,1.));
#945=DIRECTION('center_axis',(0.,0.,1.));
#946=DIRECTION('ref_axis',(0.707106781186548,-0.707106781186548,0.));
#947=DIRECTION('center_axis',(0.,0.,-1.));
#948=DIRECTION('ref_axis',(0.707106781186548,-0.707106781186548,0.));
#949=DIRECTION('',(0.,0.,-1.));
#950=DIRECTION('center_axis',(0.,-1.,0.));
#951=DIRECTION('ref_axis',(1.,0.,0.));
#952=DIRECTION('',(-1.,0.,0.));
#953=DIRECTION('',(0.,0.,1.));
#954=DIRECTION('center_axis',(0.,0.,-1.));
#955=DIRECTION('ref_axis',(-1.,0.,0.));
#956=DIRECTION('',(0.,1.,0.));
#957=DIRECTION('center_axis',(0.,0.,-1.));
#958=DIRECTION('ref_axis',(-0.707106781186549,-0.707106781186546,0.));
#959=DIRECTION('',(0.,1.,0.));
#960=DIRECTION('',(1.,0.,0.));
#961=DIRECTION('',(0.,1.,0.));
#962=DIRECTION('',(1.,0.,0.));
#963=DIRECTION('center_axis',(-1.,0.,0.));
#964=DIRECTION('ref_axis',(0.,-1.,0.));
#965=DIRECTION('',(0.,0.,-1.));
#966=DIRECTION('center_axis',(0.,0.,1.));
#967=DIRECTION('ref_axis',(-0.707106781186549,-0.707106781186546,0.));
#968=DIRECTION('center_axis',(1.,0.,0.));
#969=DIRECTION('ref_axis',(0.,1.,0.));
#970=DIRECTION('',(0.,0.,-1.));
#971=DIRECTION('',(0.,-1.,0.));
#972=DIRECTION('',(0.,0.,1.));
#973=DIRECTION('center_axis',(-1.,0.,0.));
#974=DIRECTION('ref_axis',(0.,0.,1.));
#975=DIRECTION('',(0.,0.,1.));
#976=DIRECTION('',(2.22044604925031E-16,-1.,0.));
#977=DIRECTION('center_axis',(1.,0.,0.));
#978=DIRECTION('ref_axis',(0.,0.,-1.));
#979=DIRECTION('center_axis',(0.,0.,1.));
#980=DIRECTION('ref_axis',(1.,0.,0.));
#981=DIRECTION('',(-1.,0.,0.));
#982=DIRECTION('',(0.,1.,0.));
#983=DIRECTION('',(-1.,0.,0.));
#984=DIRECTION('',(-1.,0.,0.));
#985=DIRECTION('center_axis',(-1.,0.,0.));
#986=DIRECTION('ref_axis',(0.,-1.,0.));
#987=DIRECTION('',(0.,0.,1.));
#988=DIRECTION('',(0.,0.,1.));
#989=DIRECTION('center_axis',(0.,1.,0.));
#990=DIRECTION('ref_axis',(0.,0.,1.));
#991=DIRECTION('center_axis',(0.,-1.,0.));
#992=DIRECTION('ref_axis',(1.,0.,0.));
#993=DIRECTION('center_axis',(0.,-1.,0.));
#994=DIRECTION('ref_axis',(1.,0.,0.));
#995=CARTESIAN_POINT('',(0.,0.,0.));
#996=CARTESIAN_POINT('Origin',(-13.,-74.3961357220994,20.6543046253792));
#997=CARTESIAN_POINT('',(2.,-78.3961357220994,20.6543046253792));
#998=CARTESIAN_POINT('Origin',(2.,-74.3961357220994,20.6543046253792));
#999=CARTESIAN_POINT('',(0.,-78.3961357220994,20.6543046253792));
#1000=CARTESIAN_POINT('',(-13.,-78.3961357220994,20.6543046253792));
#1001=CARTESIAN_POINT('Origin',(0.,-74.3961357220994,20.6543046253792));
#1002=CARTESIAN_POINT('Ctrl Pts',(115.5,5.50000000000001,-5.55111512312578E-16));
#1003=CARTESIAN_POINT('Ctrl Pts',(116.060998688141,6.50979763865387,2.24763995930149E-15));
#1004=CARTESIAN_POINT('Ctrl Pts',(116.992550641452,8.18659115461296,0.590224201986577));
#1005=CARTESIAN_POINT('Ctrl Pts',(117.828906194027,9.69203114924935,2.4828681107907));
#1006=CARTESIAN_POINT('Ctrl Pts',(118.,10.,3.82680157423076));
#1007=CARTESIAN_POINT('Ctrl Pts',(118.,10.,4.5));
#1008=CARTESIAN_POINT('Ctrl Pts',(115.5,5.50000000000001,-5.55111512312579E-16));
#1009=CARTESIAN_POINT('Ctrl Pts',(116.146484202524,6.42431212427048,1.93918900369529E-15));
#1010=CARTESIAN_POINT('Ctrl Pts',(117.218296358104,7.96055927358346,0.47047917990735));
#1011=CARTESIAN_POINT('Ctrl Pts',(118.321277534128,9.5906572932452,2.23525021216851));
#1012=CARTESIAN_POINT('Ctrl Pts',(118.598398600684,10.,3.7359087877432));
#1013=CARTESIAN_POINT('Ctrl Pts',(118.598398600684,10.,4.5));
#1014=CARTESIAN_POINT('Ctrl Pts',(115.5,5.50000000000001,-5.55111512312579E-16));
#1015=CARTESIAN_POINT('Ctrl Pts',(116.296083852695,6.27471247409953,1.54176181089498E-15));
#1016=CARTESIAN_POINT('Ctrl Pts',(117.6193309441,7.56161801675782,0.382673617378667));
#1017=CARTESIAN_POINT('Ctrl Pts',(119.180303541386,9.06237166344911,2.02754742043333));
#1018=CARTESIAN_POINT('Ctrl Pts',(119.634419448946,9.49790547865511,3.65781148651488));
#1019=CARTESIAN_POINT('Ctrl Pts',(119.634419448946,9.49790547865511,4.5));
#1020=CARTESIAN_POINT('Ctrl Pts',(115.5,5.50000000000001,-5.55111512312578E-16));
#1021=CARTESIAN_POINT('Ctrl Pts',(116.445683502866,6.12511282392859,1.39346808223815E-15));
#1022=CARTESIAN_POINT('Ctrl Pts',(118.01903647133,7.16369624497787,0.500017402130435));
#1023=CARTESIAN_POINT('Ctrl Pts',(119.616570944165,8.19872724892225,2.29897977195526));
#1024=CARTESIAN_POINT('Ctrl Pts',(120.,8.44879895051282,3.75959864186472));
#1025=CARTESIAN_POINT('Ctrl Pts',(120.,8.44879895051282,4.5));
#1026=CARTESIAN_POINT('Ctrl Pts',(115.5,5.50000000000001,-5.55111512312578E-16));
#1027=CARTESIAN_POINT('Ctrl Pts',(116.509797638654,6.06099868814104,1.37567283479933E-15));
#1028=CARTESIAN_POINT('Ctrl Pts',(118.186591154613,6.99255064145164,0.590224201986574));
#1029=CARTESIAN_POINT('Ctrl Pts',(119.692031149249,7.82890619402741,2.4828681107907));
#1030=CARTESIAN_POINT('Ctrl Pts',(120.,7.99999999999999,3.82680157423076));
#1031=CARTESIAN_POINT('Ctrl Pts',(120.,7.99999999999999,4.5));
#1032=CARTESIAN_POINT('',(118.,10.,4.5));
#1033=CARTESIAN_POINT('',(120.,7.99999999999999,4.5));
#1034=CARTESIAN_POINT('Origin',(118.,8.,4.5));
#1035=CARTESIAN_POINT('',(115.5,5.50000000000001,1.11022302462516E-15));
#1036=CARTESIAN_POINT('Origin',(115.5,5.50000000000001,4.5));
#1037=CARTESIAN_POINT('Origin',(115.5,5.5,4.5));
#1038=CARTESIAN_POINT('Ctrl Pts',(115.5,-145.5,0.));
#1039=CARTESIAN_POINT('Ctrl Pts',(116.509797638654,-146.060998688141,6.22833660358684E-17));
#1040=CARTESIAN_POINT('Ctrl Pts',(118.186503932244,-146.99250218458,0.590431374499997));
#1041=CARTESIAN_POINT('Ctrl Pts',(119.691968710168,-147.828871505649,2.48296885063841));
#1042=CARTESIAN_POINT('Ctrl Pts',(120.,-148.,3.82680157423076));
#1043=CARTESIAN_POINT('Ctrl Pts',(120.,-148.,4.5));
#1044=CARTESIAN_POINT('Ctrl Pts',(115.5,-145.5,0.));
#1045=CARTESIAN_POINT('Ctrl Pts',(116.42431212427,-146.146484202524,6.22833660358684E-17));
#1046=CARTESIAN_POINT('Ctrl Pts',(117.960042977897,-147.21799147338,0.470556327860093));
#1047=CARTESIAN_POINT('Ctrl Pts',(119.590279918546,-148.321049304671,2.23529742708019));
#1048=CARTESIAN_POINT('Ctrl Pts',(120.,-148.598398600684,3.7359087877432));
#1049=CARTESIAN_POINT('Ctrl Pts',(120.,-148.598398600684,4.5));
#1050=CARTESIAN_POINT('Ctrl Pts',(115.5,-145.5,0.));
#1051=CARTESIAN_POINT('Ctrl Pts',(116.274712474099,-146.296083852695,6.22833660358685E-17));
#1052=CARTESIAN_POINT('Ctrl Pts',(117.561288381527,-147.618971115488,0.382952776365579));
#1053=CARTESIAN_POINT('Ctrl Pts',(119.062028342928,-149.17994126784,2.02798690831556));
#1054=CARTESIAN_POINT('Ctrl Pts',(119.497799681905,-149.634331320325,3.65781148651488));
#1055=CARTESIAN_POINT('Ctrl Pts',(119.497799681905,-149.634331320325,4.5));
#1056=CARTESIAN_POINT('Ctrl Pts',(115.5,-145.5,0.));
#1057=CARTESIAN_POINT('Ctrl Pts',(116.125112823929,-146.445683502866,6.22833660358684E-17));
#1058=CARTESIAN_POINT('Ctrl Pts',(117.163610344785,-148.018792988706,0.50018815639426));
#1059=CARTESIAN_POINT('Ctrl Pts',(118.198635270596,-149.616365889281,2.29914929865725));
#1060=CARTESIAN_POINT('Ctrl Pts',(118.448798950513,-150.,3.75959864186472));
#1061=CARTESIAN_POINT('Ctrl Pts',(118.448798950513,-150.,4.5));
#1062=CARTESIAN_POINT('Ctrl Pts',(115.5,-145.5,0.));
#1063=CARTESIAN_POINT('Ctrl Pts',(116.060998688141,-146.509797638654,6.22833660358684E-17));
#1064=CARTESIAN_POINT('Ctrl Pts',(116.99250218458,-148.186503932244,0.590431374499996));
#1065=CARTESIAN_POINT('Ctrl Pts',(117.828871505649,-149.691968710168,2.48296885063842));
#1066=CARTESIAN_POINT('Ctrl Pts',(118.,-150.,3.82680157423076));
#1067=CARTESIAN_POINT('Ctrl Pts',(118.,-150.,4.5));
#1068=CARTESIAN_POINT('',(120.,-148.,4.5));
#1069=CARTESIAN_POINT('',(118.,-150.,4.5));
#1070=CARTESIAN_POINT('Origin',(118.,-148.,4.5));
#1071=CARTESIAN_POINT('',(115.5,-145.5,1.11022302462516E-15));
#1072=CARTESIAN_POINT('Origin',(115.5,-145.5,4.5));
#1073=CARTESIAN_POINT('Origin',(115.5,-145.5,4.5));
#1074=CARTESIAN_POINT('Ctrl Pts',(4.5,-145.5,0.));
#1075=CARTESIAN_POINT('Ctrl Pts',(3.93900131185897,-146.509797638654,6.22833660358684E-17));
#1076=CARTESIAN_POINT('Ctrl Pts',(3.00746240084519,-148.186567678479,0.59028038131161));
#1077=CARTESIAN_POINT('Ctrl Pts',(2.17110317398185,-149.692014286833,2.48289492104074));
#1078=CARTESIAN_POINT('Ctrl Pts',(2.,-150.,3.82680157423076));
#1079=CARTESIAN_POINT('Ctrl Pts',(2.,-150.,4.5));
#1080=CARTESIAN_POINT('Ctrl Pts',(4.5,-145.5,0.));
#1081=CARTESIAN_POINT('Ctrl Pts',(3.85351579747557,-146.42431212427,6.22833660358683E-17));
#1082=CARTESIAN_POINT('Ctrl Pts',(2.78178561472546,-147.96042037962,0.47050001494316));
#1083=CARTESIAN_POINT('Ctrl Pts',(1.67878418493568,-149.590555314002,2.23526289645677));
#1084=CARTESIAN_POINT('Ctrl Pts',(1.40160139931623,-150.,3.7359087877432));
#1085=CARTESIAN_POINT('Ctrl Pts',(1.40160139931623,-150.,4.5));
#1086=CARTESIAN_POINT('Ctrl Pts',(4.5,-145.5,0.));
#1087=CARTESIAN_POINT('Ctrl Pts',(3.70391614730464,-146.2747124741,6.22833660358685E-17));
#1088=CARTESIAN_POINT('Ctrl Pts',(2.38076484356125,-147.561530401876,0.382747147006341));
#1089=CARTESIAN_POINT('Ctrl Pts',(0.819795091797226,-149.062278133976,2.02766885903587));
#1090=CARTESIAN_POINT('Ctrl Pts',(0.365605283905364,-149.497875787332,3.65781148651488));
#1091=CARTESIAN_POINT('Ctrl Pts',(0.365605283905364,-149.497875787332,4.5));
#1092=CARTESIAN_POINT('Ctrl Pts',(4.5,-145.5,0.));
#1093=CARTESIAN_POINT('Ctrl Pts',(3.55431649713369,-146.125112823929,6.22833660358683E-17));
#1094=CARTESIAN_POINT('Ctrl Pts',(1.9810287922198,-147.163673392793,0.500062945241633));
#1095=CARTESIAN_POINT('Ctrl Pts',(0.38348468922074,-148.198702155448,2.29902594810148));
#1096=CARTESIAN_POINT('Ctrl Pts',(7.76801463535004E-15,-148.448798950513,
3.75959864186472));
#1097=CARTESIAN_POINT('Ctrl Pts',(7.74921548945771E-15,-148.448798950513,
4.5));
#1098=CARTESIAN_POINT('Ctrl Pts',(4.5,-145.5,0.));
#1099=CARTESIAN_POINT('Ctrl Pts',(3.49020236134614,-146.060998688141,6.22833660358684E-17));
#1100=CARTESIAN_POINT('Ctrl Pts',(1.81343232152135,-146.992537599155,0.590280381311609));
#1101=CARTESIAN_POINT('Ctrl Pts',(0.30798571316733,-147.828896826018,2.48289492104075));
#1102=CARTESIAN_POINT('Ctrl Pts',(7.7715611723761E-15,-148.,3.82680157423076));
#1103=CARTESIAN_POINT('Ctrl Pts',(7.7715611723761E-15,-148.,4.5));
#1104=CARTESIAN_POINT('',(2.,-150.,4.5));
#1105=CARTESIAN_POINT('',(5.55111512312578E-16,-148.,4.5));
#1106=CARTESIAN_POINT('Origin',(2.,-148.,4.5));
#1107=CARTESIAN_POINT('',(4.5,-145.5,-1.11022302462516E-15));
#1108=CARTESIAN_POINT('Origin',(4.5,-145.5,4.5));
#1109=CARTESIAN_POINT('Origin',(4.5,-145.5,4.5));
#1110=CARTESIAN_POINT('Ctrl Pts',(4.49999999999999,5.49999999999999,-5.55111512312578E-16));
#1111=CARTESIAN_POINT('Ctrl Pts',(3.49020236134613,6.06099868814103,2.99504035173191E-15));
#1112=CARTESIAN_POINT('Ctrl Pts',(1.81293930000015,6.99281149999992,0.58897474187229));
#1113=CARTESIAN_POINT('Ctrl Pts',(0.307614509790654,7.8291030501163,2.48242336700318));
#1114=CARTESIAN_POINT('Ctrl Pts',(1.11022302462516E-15,7.99999999999999,
3.82680157423076));
#1115=CARTESIAN_POINT('Ctrl Pts',(1.11022302462516E-15,7.99999999999999,
4.5));
#1116=CARTESIAN_POINT('Ctrl Pts',(4.49999999999999,5.49999999999999,-5.55111512312584E-16));
#1117=CARTESIAN_POINT('Ctrl Pts',(3.57568787572952,6.14648420252442,2.28323045417912E-15));
#1118=CARTESIAN_POINT('Ctrl Pts',(2.03668328860822,7.21990951059461,0.470041265700016));
#1119=CARTESIAN_POINT('Ctrl Pts',(0.407180349092322,8.32259935446017,2.23500365256702));
#1120=CARTESIAN_POINT('Ctrl Pts',(-2.2274412621467E-16,8.59839860068376,
3.7359087877432));
#1121=CARTESIAN_POINT('Ctrl Pts',(-2.18488784140035E-16,8.59839860068376,
4.5));
#1122=CARTESIAN_POINT('Ctrl Pts',(4.49999999999999,5.49999999999999,-5.55111512312581E-16));
#1123=CARTESIAN_POINT('Ctrl Pts',(3.72528752590047,6.29608385269537,1.51210306516361E-15));
#1124=CARTESIAN_POINT('Ctrl Pts',(2.4369578459974,7.62093224148204,0.381763219401063));
#1125=CARTESIAN_POINT('Ctrl Pts',(0.935411939553244,9.18262139837946,2.02415803221643));
#1126=CARTESIAN_POINT('Ctrl Pts',(0.501194913482083,9.63516882168204,3.65781148651488));
#1127=CARTESIAN_POINT('Ctrl Pts',(0.501194913482083,9.63516882168204,4.5));
#1128=CARTESIAN_POINT('Ctrl Pts',(4.49999999999999,5.5,-5.55111512312578E-16));
#1129=CARTESIAN_POINT('Ctrl Pts',(3.87488717607141,6.44568350286631,1.57142055662635E-15));
#1130=CARTESIAN_POINT('Ctrl Pts',(2.83592732717922,8.02026045471394,0.499231583924002));
#1131=CARTESIAN_POINT('Ctrl Pts',(1.80066941040722,9.61781671197242,2.29789149448627));
#1132=CARTESIAN_POINT('Ctrl Pts',(1.55120104948717,10.,3.75959864186472));
#1133=CARTESIAN_POINT('Ctrl Pts',(1.55120104948717,10.,4.5));
#1134=CARTESIAN_POINT('Ctrl Pts',(4.49999999999999,5.5,-5.55111512312578E-16));
#1135=CARTESIAN_POINT('Ctrl Pts',(3.93900131185896,6.50979763865386,1.74937303101454E-15));
#1136=CARTESIAN_POINT('Ctrl Pts',(3.00718850000008,8.18706069999984,0.588974741872289));
#1137=CARTESIAN_POINT('Ctrl Pts',(2.17089694988369,9.69238549020934,2.48242336700318));
#1138=CARTESIAN_POINT('Ctrl Pts',(1.99999999999999,10.,3.82680157423076));
#1139=CARTESIAN_POINT('Ctrl Pts',(1.99999999999999,10.,4.5));
#1140=CARTESIAN_POINT('',(1.11022302462516E-15,7.99999999999999,4.5));
#1141=CARTESIAN_POINT('',(1.99999999999999,10.,4.5));
#1142=CARTESIAN_POINT('Origin',(2.,8.,4.5));
#1143=CARTESIAN_POINT('',(4.49999999999999,5.5,-1.11022302462516E-15));
#1144=CARTESIAN_POINT('Origin',(4.49999999999999,5.5,4.5));
#1145=CARTESIAN_POINT('Origin',(4.5,5.49999999999999,4.5));
#1146=CARTESIAN_POINT('Origin',(90.,5.5,4.5));
#1147=CARTESIAN_POINT('',(90.,5.5,0.));
#1148=CARTESIAN_POINT('',(90.,10.,4.5));
#1149=CARTESIAN_POINT('Origin',(4.5,-37.5,4.5));
#1150=CARTESIAN_POINT('',(0.,-37.5,4.5));
#1151=CARTESIAN_POINT('',(4.5,-37.5,0.));
#1152=CARTESIAN_POINT('Origin',(30.,-145.5,4.5));
#1153=CARTESIAN_POINT('',(30.,-150.,4.5));
#1154=CARTESIAN_POINT('',(30.,-145.5,0.));
#1155=CARTESIAN_POINT('Origin',(115.5,-112.5,4.5));
#1156=CARTESIAN_POINT('',(120.,-112.5,4.5));
#1157=CARTESIAN_POINT('',(115.5,-112.5,0.));
#1158=CARTESIAN_POINT('Origin',(120.,-150.,0.));
#1159=CARTESIAN_POINT('',(120.,8.00000000000001,85.));
#1160=CARTESIAN_POINT('',(120.,8.00000000000001,0.));
#1161=CARTESIAN_POINT('',(120.,-148.,85.));
#1162=CARTESIAN_POINT('',(120.,-112.5,85.));
#1163=CARTESIAN_POINT('',(120.,-148.,0.));
#1164=CARTESIAN_POINT('Origin',(118.,8.00000000000001,0.));
#1165=CARTESIAN_POINT('',(118.,10.,85.));
#1166=CARTESIAN_POINT('',(118.,10.,0.));
#1167=CARTESIAN_POINT('Origin',(118.,8.00000000000001,85.));
#1168=CARTESIAN_POINT('Origin',(120.,10.,0.));
#1169=CARTESIAN_POINT('',(1.99999999999999,10.,85.));
#1170=CARTESIAN_POINT('',(2.,10.,0.));
#1171=CARTESIAN_POINT('',(90.,10.,85.));
#1172=CARTESIAN_POINT('Origin',(2.,8.,0.));
#1173=CARTESIAN_POINT('',(0.,8.,85.));
#1174=CARTESIAN_POINT('',(0.,8.,0.));
#1175=CARTESIAN_POINT('Origin',(2.,8.,85.));
#1176=CARTESIAN_POINT('Origin',(60.,-75.,0.));
#1177=CARTESIAN_POINT('Origin',(99.9,-100.25,64.));
#1178=CARTESIAN_POINT('',(99.9,-84.0000000000001,65.));
#1179=CARTESIAN_POINT('',(100.9,-84.0000000000001,64.));
#1180=CARTESIAN_POINT('Origin',(99.9,-84.0000000000001,64.));
#1181=CARTESIAN_POINT('',(100.9,-80.0000000000001,64.));
#1182=CARTESIAN_POINT('',(100.9,-100.25,64.));
#1183=CARTESIAN_POINT('',(99.9,-80.0000000000001,65.));
#1184=CARTESIAN_POINT('Origin',(99.9,-80.0000000000001,64.));
#1185=CARTESIAN_POINT('',(99.9,-100.25,65.));
#1186=CARTESIAN_POINT('Origin',(67.5,-94.0000000000001,65.));
#1187=CARTESIAN_POINT('',(27.,-80.0000000000001,65.));
#1188=CARTESIAN_POINT('',(86.25,-80.0000000000001,65.));
#1189=CARTESIAN_POINT('',(27.,-84.0000000000001,65.));
#1190=CARTESIAN_POINT('',(27.,-86.0000000000001,65.));
#1191=CARTESIAN_POINT('',(86.25,-84.0000000000001,65.));
#1192=CARTESIAN_POINT('Origin',(105.,-80.0000000000001,5.));
#1193=CARTESIAN_POINT('',(100.9,-80.0000000000001,5.));
#1194=CARTESIAN_POINT('',(100.9,-80.0000000000001,35.));
#1195=CARTESIAN_POINT('',(26.,-80.0000000000001,5.));
#1196=CARTESIAN_POINT('',(45.,-80.0000000000001,5.));
#1197=CARTESIAN_POINT('',(26.,-80.0000000000001,64.));
#1198=CARTESIAN_POINT('',(26.,-80.0000000000001,5.));
#1199=CARTESIAN_POINT('Origin',(27.,-80.0000000000001,64.));
#1200=CARTESIAN_POINT('Origin',(100.,-102.,64.));
#1201=CARTESIAN_POINT('',(100.,-110.,65.));
#1202=CARTESIAN_POINT('',(101.,-110.,64.));
#1203=CARTESIAN_POINT('Origin',(100.,-110.,64.));
#1204=CARTESIAN_POINT('',(101.,-106.6,64.));
#1205=CARTESIAN_POINT('',(101.,-102.,64.));
#1206=CARTESIAN_POINT('',(100.,-106.6,65.));
#1207=CARTESIAN_POINT('Origin',(100.,-106.6,64.));
#1208=CARTESIAN_POINT('',(100.,-102.,65.));
#1209=CARTESIAN_POINT('Origin',(67.5,-94.0000000000001,65.));
#1210=CARTESIAN_POINT('',(27.,-106.6,65.));
#1211=CARTESIAN_POINT('',(48.75,-106.6,65.));
#1212=CARTESIAN_POINT('',(27.,-110.,65.));
#1213=CARTESIAN_POINT('',(27.,-86.0000000000001,65.));
#1214=CARTESIAN_POINT('',(48.75,-110.,65.));
#1215=CARTESIAN_POINT('Origin',(30.,-106.6,5.));
#1216=CARTESIAN_POINT('',(101.,-106.6,5.));
#1217=CARTESIAN_POINT('',(101.,-106.6,6.69926454679664));
#1218=CARTESIAN_POINT('',(101.,-106.6,4.99852909359329));
#1219=CARTESIAN_POINT('',(101.,-106.6,8.39852909359329));
#1220=CARTESIAN_POINT('',(26.,-106.6,4.99852909359329));
#1221=CARTESIAN_POINT('',(65.45,-106.6,4.99852909359329));
#1222=CARTESIAN_POINT('',(26.,-106.6,5.));
#1223=CARTESIAN_POINT('',(26.,-106.6,8.39852909359329));
#1224=CARTESIAN_POINT('',(26.,-106.6,64.));
#1225=CARTESIAN_POINT('',(26.,-106.6,5.));
#1226=CARTESIAN_POINT('Origin',(27.,-106.6,64.));
#1227=CARTESIAN_POINT('Origin',(27.,-86.0000000000001,64.));
#1228=CARTESIAN_POINT('',(26.,-84.0000000000001,64.));
#1229=CARTESIAN_POINT('Origin',(27.,-84.0000000000001,64.));
#1230=CARTESIAN_POINT('',(26.,-86.0000000000001,64.));
#1231=CARTESIAN_POINT('Origin',(105.,-84.0000000000001,5.));
#1232=CARTESIAN_POINT('',(26.,-84.0000000000001,5.));
#1233=CARTESIAN_POINT('',(26.,-84.0000000000001,38.25));
#1234=CARTESIAN_POINT('',(26.,-84.0000000000001,4.99852909359329));
#1235=CARTESIAN_POINT('',(26.,-84.0000000000001,8.39852909359329));
#1236=CARTESIAN_POINT('',(100.9,-84.0000000000001,4.99852909359329));
#1237=CARTESIAN_POINT('',(102.95,-84.0000000000001,4.99852909359329));
#1238=CARTESIAN_POINT('',(100.9,-84.0000000000001,8.39852909359329));
#1239=CARTESIAN_POINT('Origin',(26.,-78.0000000000001,5.));
#1240=CARTESIAN_POINT('',(26.,-76.5,5.));
#1241=CARTESIAN_POINT('Origin',(27.,-86.0000000000001,64.));
#1242=CARTESIAN_POINT('',(26.,-110.,64.));
#1243=CARTESIAN_POINT('',(26.,-86.0000000000001,64.));
#1244=CARTESIAN_POINT('Origin',(27.,-110.,64.));
#1245=CARTESIAN_POINT('Origin',(100.9,-80.0000000000001,8.39852909359329));
#1246=CARTESIAN_POINT('',(101.,-80.0000000000001,5.));
#1247=CARTESIAN_POINT('',(45.,-80.0000000000001,5.));
#1248=CARTESIAN_POINT('',(100.9,-80.0000000000001,4.99852909359329));
#1249=CARTESIAN_POINT('',(100.9,-80.0000000000001,8.39852909359329));
#1250=CARTESIAN_POINT('',(101.,-80.0000000000001,4.99852909359329));
#1251=CARTESIAN_POINT('',(102.95,-80.0000000000001,4.99852909359329));
#1252=CARTESIAN_POINT('',(101.,-80.0000000000001,8.39852909359329));
#1253=CARTESIAN_POINT('Origin',(101.,-80.0000000000001,8.39852909359329));
#1254=CARTESIAN_POINT('',(101.,-92.5,5.));
#1255=CARTESIAN_POINT('',(101.,-96.75,4.99852909359329));
#1256=CARTESIAN_POINT('Origin',(26.,-106.6,8.39852909359329));
#1257=CARTESIAN_POINT('',(26.,-76.5,5.));
#1258=CARTESIAN_POINT('',(26.,-80.7500000000001,4.99852909359329));
#1259=CARTESIAN_POINT('Origin',(100.9,-83.5000000000001,4.99852909359329));
#1260=CARTESIAN_POINT('',(100.9,-95.,4.99852909359328));
#1261=CARTESIAN_POINT('Origin',(26.,-78.0000000000001,5.));
#1262=CARTESIAN_POINT('',(26.,-110.,5.));
#1263=CARTESIAN_POINT('',(26.,-76.5,5.));
#1264=CARTESIAN_POINT('',(26.,-110.,5.));
#1265=CARTESIAN_POINT('Origin',(118.,-148.,0.));
#1266=CARTESIAN_POINT('',(118.,-150.,85.));
#1267=CARTESIAN_POINT('Origin',(118.,-148.,85.));
#1268=CARTESIAN_POINT('',(118.,-150.,0.));
#1269=CARTESIAN_POINT('Origin',(0.,-150.,0.));
#1270=CARTESIAN_POINT('',(2.,-150.,85.));
#1271=CARTESIAN_POINT('',(30.,-150.,85.));
#1272=CARTESIAN_POINT('',(2.,-150.,0.));
#1273=CARTESIAN_POINT('Origin',(60.,-75.,85.));
#1274=CARTESIAN_POINT('',(0.,-148.,85.));
#1275=CARTESIAN_POINT('',(0.,-37.5,85.));
#1276=CARTESIAN_POINT('Origin',(2.,-148.,85.));
#1277=CARTESIAN_POINT('',(118.,-148.,85.));
#1278=CARTESIAN_POINT('',(118.,8.00000000000001,85.));
#1279=CARTESIAN_POINT('',(118.,-112.5,85.));
#1280=CARTESIAN_POINT('',(2.,-148.,85.));
#1281=CARTESIAN_POINT('',(30.,-148.,85.));
#1282=CARTESIAN_POINT('',(1.99999999999999,8.00000000000001,85.));
#1283=CARTESIAN_POINT('',(2.,-38.5,85.));
#1284=CARTESIAN_POINT('',(90.,8.00000000000001,85.));
#1285=CARTESIAN_POINT('Origin',(0.,0.,0.));
#1286=CARTESIAN_POINT('',(0.,-148.,0.));
#1287=CARTESIAN_POINT('Origin',(2.,-148.,0.));
#1288=CARTESIAN_POINT('Origin',(118.,-150.,0.));
#1289=CARTESIAN_POINT('',(118.,8.00000000000001,5.));
#1290=CARTESIAN_POINT('',(118.,8.,50.));
#1291=CARTESIAN_POINT('',(118.,-148.,5.));
#1292=CARTESIAN_POINT('',(118.,-112.5,5.));
#1293=CARTESIAN_POINT('',(118.,-148.,50.));
#1294=CARTESIAN_POINT('Origin',(101.,-110.,5.));
#1295=CARTESIAN_POINT('',(101.,-110.,5.));
#1296=CARTESIAN_POINT('',(101.,-110.,5.));
#1297=CARTESIAN_POINT('',(101.,-92.5,5.));
#1298=CARTESIAN_POINT('Origin',(100.9,-106.5,65.));
#1299=CARTESIAN_POINT('Origin',(60.,-75.,5.));
#1300=CARTESIAN_POINT('',(1.99999999999999,8.,5.));
#1301=CARTESIAN_POINT('',(90.,8.,5.));
#1302=CARTESIAN_POINT('',(2.,-148.,5.));
#1303=CARTESIAN_POINT('',(1.99999999999999,-2.,5.));
#1304=CARTESIAN_POINT('',(30.,-148.,5.));
#1305=CARTESIAN_POINT('',(45.,-110.,5.));
#1306=CARTESIAN_POINT('Origin',(2.,0.,0.));
#1307=CARTESIAN_POINT('',(2.,8.,50.));
#1308=CARTESIAN_POINT('',(2.,-148.,0.));
#1309=CARTESIAN_POINT('Origin',(120.,8.00000000000001,0.));
#1310=CARTESIAN_POINT('Origin',(30.,-110.,5.));
#1311=CARTESIAN_POINT('Origin',(0.,-148.,0.));
#1312=UNCERTAINTY_MEASURE_WITH_UNIT(LENGTH_MEASURE(0.01),#1316,
'DISTANCE_ACCURACY_VALUE',
'Maximum model space distance between geometric entities at asserted c
onnectivities');
#1313=UNCERTAINTY_MEASURE_WITH_UNIT(LENGTH_MEASURE(0.01),#1316,
'DISTANCE_ACCURACY_VALUE',
'Maximum model space distance between geometric entities at asserted c
onnectivities');
#1314=(
GEOMETRIC_REPRESENTATION_CONTEXT(3)
GLOBAL_UNCERTAINTY_ASSIGNED_CONTEXT((#1312))
GLOBAL_UNIT_ASSIGNED_CONTEXT((#1316,#1318,#1319))
REPRESENTATION_CONTEXT('','3D')
);
#1315=(
GEOMETRIC_REPRESENTATION_CONTEXT(3)
GLOBAL_UNCERTAINTY_ASSIGNED_CONTEXT((#1313))
GLOBAL_UNIT_ASSIGNED_CONTEXT((#1316,#1318,#1319))
REPRESENTATION_CONTEXT('','3D')
);
#1316=(
LENGTH_UNIT()
NAMED_UNIT(*)
SI_UNIT(.MILLI.,.METRE.)
);
#1317=(
LENGTH_UNIT()
NAMED_UNIT(*)
SI_UNIT($,.METRE.)
);
#1318=(
NAMED_UNIT(*)
PLANE_ANGLE_UNIT()
SI_UNIT($,.RADIAN.)
);
#1319=(
NAMED_UNIT(*)
SI_UNIT($,.STERADIAN.)
SOLID_ANGLE_UNIT()
);
#1320=SHAPE_DEFINITION_REPRESENTATION(#1321,#1322);
#1321=PRODUCT_DEFINITION_SHAPE('',$,#1324);
#1322=SHAPE_REPRESENTATION('',(#728),#1314);
#1323=PRODUCT_DEFINITION_CONTEXT('part definition',#1328,'design');
#1324=PRODUCT_DEFINITION('2026-06-29-16-52-42-069','ROCKET_v1',#1325,#1323);
#1325=PRODUCT_DEFINITION_FORMATION('',$,#1330);
#1326=PRODUCT_RELATED_PRODUCT_CATEGORY('ROCKET_v1','ROCKET_v1',(#1330));
#1327=APPLICATION_PROTOCOL_DEFINITION('international standard',
'automotive_design',2009,#1328);
#1328=APPLICATION_CONTEXT(
'Core Data for Automotive Mechanical Design Process');
#1329=PRODUCT_CONTEXT('part definition',#1328,'mechanical');
#1330=PRODUCT('2026-06-29-16-52-42-069','ROCKET_v1',$,(#1329));
#1331=PRESENTATION_STYLE_ASSIGNMENT((#1332));
#1332=SURFACE_STYLE_USAGE(.BOTH.,#1333);
#1333=SURFACE_SIDE_STYLE('',(#1334));
#1334=SURFACE_STYLE_FILL_AREA(#1335);
#1335=FILL_AREA_STYLE('Steel - Satin',(#1336));
#1336=FILL_AREA_STYLE_COLOUR('Steel - Satin',#1337);
#1337=COLOUR_RGB('Steel - Satin',0.627450980392157,0.627450980392157,0.627450980392157);
ENDSEC;
END-ISO-10303-21;
