ISO-10303-21;
HEADER;
/* Generated by software containing ST-Developer
 * from STEP Tools, Inc. (www.steptools.com) 
 */

FILE_DESCRIPTION(
/* description */ (''),
/* implementation_level */ '2;1');

FILE_NAME(
/* name */ 'shock_cord_mount.step',
/* time_stamp */ '2026-08-06T17:45:31+02:00',
/* author */ (''),
/* organization */ (''),
/* preprocessor_version */ 'ST-DEVELOPER v20.1',
/* originating_system */ 'Autodesk Translation Framework v15.8.0.0',
/* authorisation */ '');

FILE_SCHEMA (('AUTOMOTIVE_DESIGN { 1 0 10303 214 3 1 1 }'));
ENDSEC;

DATA;
#10=MECHANICAL_DESIGN_GEOMETRIC_PRESENTATION_REPRESENTATION('',(#13),#526);
#11=SHAPE_REPRESENTATION_RELATIONSHIP('SRR','None',#533,#12);
#12=ADVANCED_BREP_SHAPE_REPRESENTATION('',(#14),#525);
#13=STYLED_ITEM('',(#542),#14);
#14=MANIFOLD_SOLID_BREP('shock_cord_mount1',#294);
#15=FACE_BOUND('',#64,.T.);
#16=FACE_BOUND('',#68,.T.);
#17=CYLINDRICAL_SURFACE('',#317,1.5);
#18=CYLINDRICAL_SURFACE('',#322,1.5);
#19=CYLINDRICAL_SURFACE('',#323,1.5);
#20=CYLINDRICAL_SURFACE('',#328,1.5);
#21=CYLINDRICAL_SURFACE('',#333,1.5);
#22=CYLINDRICAL_SURFACE('',#334,1.5);
#23=CYLINDRICAL_SURFACE('',#335,1.5);
#24=CYLINDRICAL_SURFACE('',#336,1.5);
#25=CYLINDRICAL_SURFACE('',#341,1.7);
#26=SPHERICAL_SURFACE('',#313,1.49999999999999);
#27=SPHERICAL_SURFACE('',#318,1.5);
#28=SPHERICAL_SURFACE('',#324,1.5);
#29=SPHERICAL_SURFACE('',#329,1.49999999999999);
#30=FACE_OUTER_BOUND('',#49,.T.);
#31=FACE_OUTER_BOUND('',#50,.T.);
#32=FACE_OUTER_BOUND('',#51,.T.);
#33=FACE_OUTER_BOUND('',#52,.T.);
#34=FACE_OUTER_BOUND('',#53,.T.);
#35=FACE_OUTER_BOUND('',#54,.T.);
#36=FACE_OUTER_BOUND('',#55,.T.);
#37=FACE_OUTER_BOUND('',#56,.T.);
#38=FACE_OUTER_BOUND('',#57,.T.);
#39=FACE_OUTER_BOUND('',#58,.T.);
#40=FACE_OUTER_BOUND('',#59,.T.);
#41=FACE_OUTER_BOUND('',#60,.T.);
#42=FACE_OUTER_BOUND('',#61,.T.);
#43=FACE_OUTER_BOUND('',#62,.T.);
#44=FACE_OUTER_BOUND('',#63,.T.);
#45=FACE_OUTER_BOUND('',#65,.T.);
#46=FACE_OUTER_BOUND('',#66,.T.);
#47=FACE_OUTER_BOUND('',#67,.T.);
#48=FACE_OUTER_BOUND('',#69,.T.);
#49=EDGE_LOOP('',(#191,#192,#193,#194,#195,#196,#197,#198));
#50=EDGE_LOOP('',(#199,#200,#201));
#51=EDGE_LOOP('',(#202,#203,#204,#205));
#52=EDGE_LOOP('',(#206,#207,#208));
#53=EDGE_LOOP('',(#209,#210,#211,#212));
#54=EDGE_LOOP('',(#213,#214,#215,#216));
#55=EDGE_LOOP('',(#217,#218,#219));
#56=EDGE_LOOP('',(#220,#221,#222,#223));
#57=EDGE_LOOP('',(#224,#225,#226));
#58=EDGE_LOOP('',(#227,#228,#229,#230));
#59=EDGE_LOOP('',(#231,#232,#233,#234));
#60=EDGE_LOOP('',(#235,#236,#237,#238));
#61=EDGE_LOOP('',(#239,#240,#241,#242));
#62=EDGE_LOOP('',(#243,#244,#245,#246));
#63=EDGE_LOOP('',(#247,#248,#249,#250));
#64=EDGE_LOOP('',(#251));
#65=EDGE_LOOP('',(#252,#253,#254,#255));
#66=EDGE_LOOP('',(#256,#257,#258,#259));
#67=EDGE_LOOP('',(#260,#261,#262,#263));
#68=EDGE_LOOP('',(#264));
#69=EDGE_LOOP('',(#265,#266,#267,#268));
#70=LINE('',#448,#91);
#71=LINE('',#452,#92);
#72=LINE('',#456,#93);
#73=LINE('',#459,#94);
#74=LINE('',#468,#95);
#75=LINE('',#469,#96);
#76=LINE('',#478,#97);
#77=LINE('',#479,#98);
#78=LINE('',#481,#99);
#79=LINE('',#482,#100);
#80=LINE('',#491,#101);
#81=LINE('',#492,#102);
#82=LINE('',#501,#103);
#83=LINE('',#502,#104);
#84=LINE('',#504,#105);
#85=LINE('',#505,#106);
#86=LINE('',#507,#107);
#87=LINE('',#508,#108);
#88=LINE('',#510,#109);
#89=LINE('',#511,#110);
#90=LINE('',#519,#111);
#91=VECTOR('',#351,10.);
#92=VECTOR('',#354,10.);
#93=VECTOR('',#357,10.);
#94=VECTOR('',#360,10.);
#95=VECTOR('',#371,10.);
#96=VECTOR('',#372,10.);
#97=VECTOR('',#383,10.);
#98=VECTOR('',#384,10.);
#99=VECTOR('',#387,10.);
#100=VECTOR('',#388,10.);
#101=VECTOR('',#399,10.);
#102=VECTOR('',#400,10.);
#103=VECTOR('',#411,10.);
#104=VECTOR('',#412,10.);
#105=VECTOR('',#415,10.);
#106=VECTOR('',#416,10.);
#107=VECTOR('',#419,10.);
#108=VECTOR('',#420,10.);
#109=VECTOR('',#423,10.);
#110=VECTOR('',#424,10.);
#111=VECTOR('',#435,1.7);
#112=CIRCLE('',#309,1.5);
#113=CIRCLE('',#310,1.5);
#114=CIRCLE('',#311,1.5);
#115=CIRCLE('',#312,1.5);
#116=CIRCLE('',#314,1.5);
#117=CIRCLE('',#315,1.49999999999999);
#118=CIRCLE('',#316,1.50000000000002);
#119=CIRCLE('',#319,1.49999999999999);
#120=CIRCLE('',#320,1.5);
#121=CIRCLE('',#321,1.50000000000002);
#122=CIRCLE('',#325,1.49999999999999);
#123=CIRCLE('',#326,1.5);
#124=CIRCLE('',#327,1.50000000000002);
#125=CIRCLE('',#330,1.5);
#126=CIRCLE('',#331,1.49999999999999);
#127=CIRCLE('',#332,1.50000000000002);
#128=CIRCLE('',#339,1.7);
#129=CIRCLE('',#342,1.7);
#130=VERTEX_POINT('',#444);
#131=VERTEX_POINT('',#445);
#132=VERTEX_POINT('',#447);
#133=VERTEX_POINT('',#449);
#134=VERTEX_POINT('',#451);
#135=VERTEX_POINT('',#453);
#136=VERTEX_POINT('',#455);
#137=VERTEX_POINT('',#457);
#138=VERTEX_POINT('',#461);
#139=VERTEX_POINT('',#462);
#140=VERTEX_POINT('',#464);
#141=VERTEX_POINT('',#471);
#142=VERTEX_POINT('',#472);
#143=VERTEX_POINT('',#474);
#144=VERTEX_POINT('',#484);
#145=VERTEX_POINT('',#485);
#146=VERTEX_POINT('',#487);
#147=VERTEX_POINT('',#494);
#148=VERTEX_POINT('',#495);
#149=VERTEX_POINT('',#497);
#150=VERTEX_POINT('',#514);
#151=VERTEX_POINT('',#518);
#152=EDGE_CURVE('',#130,#131,#112,.T.);
#153=EDGE_CURVE('',#131,#132,#70,.T.);
#154=EDGE_CURVE('',#132,#133,#113,.T.);
#155=EDGE_CURVE('',#133,#134,#71,.T.);
#156=EDGE_CURVE('',#134,#135,#114,.T.);
#157=EDGE_CURVE('',#135,#136,#72,.T.);
#158=EDGE_CURVE('',#136,#137,#115,.T.);
#159=EDGE_CURVE('',#137,#130,#73,.T.);
#160=EDGE_CURVE('',#138,#139,#116,.F.);
#161=EDGE_CURVE('',#140,#138,#117,.F.);
#162=EDGE_CURVE('',#139,#140,#118,.F.);
#163=EDGE_CURVE('',#130,#140,#74,.T.);
#164=EDGE_CURVE('',#138,#131,#75,.T.);
#165=EDGE_CURVE('',#141,#142,#119,.F.);
#166=EDGE_CURVE('',#143,#141,#120,.F.);
#167=EDGE_CURVE('',#142,#143,#121,.F.);
#168=EDGE_CURVE('',#132,#143,#76,.T.);
#169=EDGE_CURVE('',#141,#133,#77,.T.);
#170=EDGE_CURVE('',#139,#142,#78,.T.);
#171=EDGE_CURVE('',#143,#138,#79,.T.);
#172=EDGE_CURVE('',#144,#145,#122,.F.);
#173=EDGE_CURVE('',#146,#144,#123,.F.);
#174=EDGE_CURVE('',#145,#146,#124,.F.);
#175=EDGE_CURVE('',#136,#146,#80,.T.);
#176=EDGE_CURVE('',#144,#137,#81,.T.);
#177=EDGE_CURVE('',#147,#148,#125,.F.);
#178=EDGE_CURVE('',#149,#147,#126,.F.);
#179=EDGE_CURVE('',#148,#149,#127,.F.);
#180=EDGE_CURVE('',#134,#149,#82,.T.);
#181=EDGE_CURVE('',#147,#135,#83,.T.);
#182=EDGE_CURVE('',#142,#148,#84,.T.);
#183=EDGE_CURVE('',#149,#141,#85,.T.);
#184=EDGE_CURVE('',#148,#145,#86,.T.);
#185=EDGE_CURVE('',#146,#147,#87,.T.);
#186=EDGE_CURVE('',#145,#139,#88,.T.);
#187=EDGE_CURVE('',#140,#144,#89,.T.);
#188=EDGE_CURVE('',#150,#150,#128,.T.);
#189=EDGE_CURVE('',#150,#151,#90,.T.);
#190=EDGE_CURVE('',#151,#151,#129,.T.);
#191=ORIENTED_EDGE('',*,*,#152,.T.);
#192=ORIENTED_EDGE('',*,*,#153,.T.);
#193=ORIENTED_EDGE('',*,*,#154,.T.);
#194=ORIENTED_EDGE('',*,*,#155,.T.);
#195=ORIENTED_EDGE('',*,*,#156,.T.);
#196=ORIENTED_EDGE('',*,*,#157,.T.);
#197=ORIENTED_EDGE('',*,*,#158,.T.);
#198=ORIENTED_EDGE('',*,*,#159,.T.);
#199=ORIENTED_EDGE('',*,*,#160,.F.);
#200=ORIENTED_EDGE('',*,*,#161,.F.);
#201=ORIENTED_EDGE('',*,*,#162,.F.);
#202=ORIENTED_EDGE('',*,*,#163,.T.);
#203=ORIENTED_EDGE('',*,*,#161,.T.);
#204=ORIENTED_EDGE('',*,*,#164,.T.);
#205=ORIENTED_EDGE('',*,*,#152,.F.);
#206=ORIENTED_EDGE('',*,*,#165,.F.);
#207=ORIENTED_EDGE('',*,*,#166,.F.);
#208=ORIENTED_EDGE('',*,*,#167,.F.);
#209=ORIENTED_EDGE('',*,*,#168,.T.);
#210=ORIENTED_EDGE('',*,*,#166,.T.);
#211=ORIENTED_EDGE('',*,*,#169,.T.);
#212=ORIENTED_EDGE('',*,*,#154,.F.);
#213=ORIENTED_EDGE('',*,*,#160,.T.);
#214=ORIENTED_EDGE('',*,*,#170,.T.);
#215=ORIENTED_EDGE('',*,*,#167,.T.);
#216=ORIENTED_EDGE('',*,*,#171,.T.);
#217=ORIENTED_EDGE('',*,*,#172,.F.);
#218=ORIENTED_EDGE('',*,*,#173,.F.);
#219=ORIENTED_EDGE('',*,*,#174,.F.);
#220=ORIENTED_EDGE('',*,*,#175,.T.);
#221=ORIENTED_EDGE('',*,*,#173,.T.);
#222=ORIENTED_EDGE('',*,*,#176,.T.);
#223=ORIENTED_EDGE('',*,*,#158,.F.);
#224=ORIENTED_EDGE('',*,*,#177,.F.);
#225=ORIENTED_EDGE('',*,*,#178,.F.);
#226=ORIENTED_EDGE('',*,*,#179,.F.);
#227=ORIENTED_EDGE('',*,*,#180,.T.);
#228=ORIENTED_EDGE('',*,*,#178,.T.);
#229=ORIENTED_EDGE('',*,*,#181,.T.);
#230=ORIENTED_EDGE('',*,*,#156,.F.);
#231=ORIENTED_EDGE('',*,*,#165,.T.);
#232=ORIENTED_EDGE('',*,*,#182,.T.);
#233=ORIENTED_EDGE('',*,*,#179,.T.);
#234=ORIENTED_EDGE('',*,*,#183,.T.);
#235=ORIENTED_EDGE('',*,*,#177,.T.);
#236=ORIENTED_EDGE('',*,*,#184,.T.);
#237=ORIENTED_EDGE('',*,*,#174,.T.);
#238=ORIENTED_EDGE('',*,*,#185,.T.);
#239=ORIENTED_EDGE('',*,*,#172,.T.);
#240=ORIENTED_EDGE('',*,*,#186,.T.);
#241=ORIENTED_EDGE('',*,*,#162,.T.);
#242=ORIENTED_EDGE('',*,*,#187,.T.);
#243=ORIENTED_EDGE('',*,*,#164,.F.);
#244=ORIENTED_EDGE('',*,*,#171,.F.);
#245=ORIENTED_EDGE('',*,*,#168,.F.);
#246=ORIENTED_EDGE('',*,*,#153,.F.);
#247=ORIENTED_EDGE('',*,*,#169,.F.);
#248=ORIENTED_EDGE('',*,*,#183,.F.);
#249=ORIENTED_EDGE('',*,*,#180,.F.);
#250=ORIENTED_EDGE('',*,*,#155,.F.);
#251=ORIENTED_EDGE('',*,*,#188,.T.);
#252=ORIENTED_EDGE('',*,*,#170,.F.);
#253=ORIENTED_EDGE('',*,*,#186,.F.);
#254=ORIENTED_EDGE('',*,*,#184,.F.);
#255=ORIENTED_EDGE('',*,*,#182,.F.);
#256=ORIENTED_EDGE('',*,*,#188,.F.);
#257=ORIENTED_EDGE('',*,*,#189,.T.);
#258=ORIENTED_EDGE('',*,*,#190,.F.);
#259=ORIENTED_EDGE('',*,*,#189,.F.);
#260=ORIENTED_EDGE('',*,*,#163,.F.);
#261=ORIENTED_EDGE('',*,*,#159,.F.);
#262=ORIENTED_EDGE('',*,*,#176,.F.);
#263=ORIENTED_EDGE('',*,*,#187,.F.);
#264=ORIENTED_EDGE('',*,*,#190,.T.);
#265=ORIENTED_EDGE('',*,*,#175,.F.);
#266=ORIENTED_EDGE('',*,*,#157,.F.);
#267=ORIENTED_EDGE('',*,*,#181,.F.);
#268=ORIENTED_EDGE('',*,*,#185,.F.);
#269=PLANE('',#308);
#270=PLANE('',#337);
#271=PLANE('',#338);
#272=PLANE('',#340);
#273=PLANE('',#343);
#274=PLANE('',#344);
#275=ADVANCED_FACE('',(#30),#269,.F.);
#276=ADVANCED_FACE('',(#31),#26,.T.);
#277=ADVANCED_FACE('',(#32),#17,.T.);
#278=ADVANCED_FACE('',(#33),#27,.T.);
#279=ADVANCED_FACE('',(#34),#18,.T.);
#280=ADVANCED_FACE('',(#35),#19,.T.);
#281=ADVANCED_FACE('',(#36),#28,.T.);
#282=ADVANCED_FACE('',(#37),#20,.T.);
#283=ADVANCED_FACE('',(#38),#29,.T.);
#284=ADVANCED_FACE('',(#39),#21,.T.);
#285=ADVANCED_FACE('',(#40),#22,.T.);
#286=ADVANCED_FACE('',(#41),#23,.T.);
#287=ADVANCED_FACE('',(#42),#24,.T.);
#288=ADVANCED_FACE('',(#43),#270,.T.);
#289=ADVANCED_FACE('',(#44,#15),#271,.T.);
#290=ADVANCED_FACE('',(#45),#272,.T.);
#291=ADVANCED_FACE('',(#46),#25,.F.);
#292=ADVANCED_FACE('',(#47,#16),#273,.T.);
#293=ADVANCED_FACE('',(#48),#274,.T.);
#294=CLOSED_SHELL('',(#275,#276,#277,#278,#279,#280,#281,#282,#283,#284,
#285,#286,#287,#288,#289,#290,#291,#292,#293));
#295=DERIVED_UNIT_ELEMENT(#297,1.);
#296=DERIVED_UNIT_ELEMENT(#528,-3.);
#297=(
MASS_UNIT()
NAMED_UNIT(*)
SI_UNIT(.KILO.,.GRAM.)
);
#298=DERIVED_UNIT((#295,#296));
#299=MEASURE_REPRESENTATION_ITEM('density measure',
POSITIVE_RATIO_MEASURE(7850.),#298);
#300=PROPERTY_DEFINITION_REPRESENTATION(#305,#302);
#301=PROPERTY_DEFINITION_REPRESENTATION(#306,#303);
#302=REPRESENTATION('material name',(#304),#525);
#303=REPRESENTATION('density',(#299),#525);
#304=DESCRIPTIVE_REPRESENTATION_ITEM('Steel','Steel');
#305=PROPERTY_DEFINITION('material property','material name',#535);
#306=PROPERTY_DEFINITION('material property','density of part',#535);
#307=AXIS2_PLACEMENT_3D('',#442,#345,#346);
#308=AXIS2_PLACEMENT_3D('',#443,#347,#348);
#309=AXIS2_PLACEMENT_3D('',#446,#349,#350);
#310=AXIS2_PLACEMENT_3D('',#450,#352,#353);
#311=AXIS2_PLACEMENT_3D('',#454,#355,#356);
#312=AXIS2_PLACEMENT_3D('',#458,#358,#359);
#313=AXIS2_PLACEMENT_3D('',#460,#361,#362);
#314=AXIS2_PLACEMENT_3D('',#463,#363,#364);
#315=AXIS2_PLACEMENT_3D('',#465,#365,#366);
#316=AXIS2_PLACEMENT_3D('',#466,#367,#368);
#317=AXIS2_PLACEMENT_3D('',#467,#369,#370);
#318=AXIS2_PLACEMENT_3D('',#470,#373,#374);
#319=AXIS2_PLACEMENT_3D('',#473,#375,#376);
#320=AXIS2_PLACEMENT_3D('',#475,#377,#378);
#321=AXIS2_PLACEMENT_3D('',#476,#379,#380);
#322=AXIS2_PLACEMENT_3D('',#477,#381,#382);
#323=AXIS2_PLACEMENT_3D('',#480,#385,#386);
#324=AXIS2_PLACEMENT_3D('',#483,#389,#390);
#325=AXIS2_PLACEMENT_3D('',#486,#391,#392);
#326=AXIS2_PLACEMENT_3D('',#488,#393,#394);
#327=AXIS2_PLACEMENT_3D('',#489,#395,#396);
#328=AXIS2_PLACEMENT_3D('',#490,#397,#398);
#329=AXIS2_PLACEMENT_3D('',#493,#401,#402);
#330=AXIS2_PLACEMENT_3D('',#496,#403,#404);
#331=AXIS2_PLACEMENT_3D('',#498,#405,#406);
#332=AXIS2_PLACEMENT_3D('',#499,#407,#408);
#333=AXIS2_PLACEMENT_3D('',#500,#409,#410);
#334=AXIS2_PLACEMENT_3D('',#503,#413,#414);
#335=AXIS2_PLACEMENT_3D('',#506,#417,#418);
#336=AXIS2_PLACEMENT_3D('',#509,#421,#422);
#337=AXIS2_PLACEMENT_3D('',#512,#425,#426);
#338=AXIS2_PLACEMENT_3D('',#513,#427,#428);
#339=AXIS2_PLACEMENT_3D('',#515,#429,#430);
#340=AXIS2_PLACEMENT_3D('',#516,#431,#432);
#341=AXIS2_PLACEMENT_3D('',#517,#433,#434);
#342=AXIS2_PLACEMENT_3D('',#520,#436,#437);
#343=AXIS2_PLACEMENT_3D('',#521,#438,#439);
#344=AXIS2_PLACEMENT_3D('',#522,#440,#441);
#345=DIRECTION('axis',(0.,0.,1.));
#346=DIRECTION('refdir',(1.,0.,0.));
#347=DIRECTION('center_axis',(0.,0.,-1.));
#348=DIRECTION('ref_axis',(1.,0.,0.));
#349=DIRECTION('center_axis',(0.,0.,1.));
#350=DIRECTION('ref_axis',(-0.707106781186544,-0.707106781186551,0.));
#351=DIRECTION('',(1.,0.,0.));
#352=DIRECTION('center_axis',(0.,0.,1.));
#353=DIRECTION('ref_axis',(0.707106781186544,-0.707106781186551,0.));
#354=DIRECTION('',(0.,1.,0.));
#355=DIRECTION('center_axis',(0.,0.,1.));
#356=DIRECTION('ref_axis',(0.707106781186544,0.707106781186551,0.));
#357=DIRECTION('',(-1.,0.,0.));
#358=DIRECTION('center_axis',(0.,0.,1.));
#359=DIRECTION('ref_axis',(-0.707106781186544,0.707106781186551,0.));
#360=DIRECTION('',(0.,-1.,0.));
#361=DIRECTION('center_axis',(0.408248290463863,-0.816496580927726,0.408248290463863));
#362=DIRECTION('ref_axis',(-0.577350269189617,-0.577350269189624,-0.577350269189636));
#363=DIRECTION('center_axis',(-1.,0.,0.));
#364=DIRECTION('ref_axis',(0.,-1.,0.));
#365=DIRECTION('center_axis',(0.,0.,-1.));
#366=DIRECTION('ref_axis',(-1.,0.,0.));
#367=DIRECTION('center_axis',(0.,-1.,0.));
#368=DIRECTION('ref_axis',(0.,0.,-1.));
#369=DIRECTION('center_axis',(0.,0.,-1.));
#370=DIRECTION('ref_axis',(-0.707106781186544,-0.707106781186551,0.));
#371=DIRECTION('',(0.,0.,-1.));
#372=DIRECTION('',(0.,0.,1.));
#373=DIRECTION('center_axis',(-0.40824829046386,-0.816496580927729,0.40824829046386));
#374=DIRECTION('ref_axis',(0.577350269189616,-0.577350269189627,-0.577350269189635));
#375=DIRECTION('center_axis',(0.,-1.,0.));
#376=DIRECTION('ref_axis',(1.,0.,0.));
#377=DIRECTION('center_axis',(0.,0.,-1.));
#378=DIRECTION('ref_axis',(0.,-1.,0.));
#379=DIRECTION('center_axis',(1.,0.,0.));
#380=DIRECTION('ref_axis',(0.,0.,-1.));
#381=DIRECTION('center_axis',(0.,0.,-1.));
#382=DIRECTION('ref_axis',(0.707106781186544,-0.707106781186551,0.));
#383=DIRECTION('',(0.,0.,-1.));
#384=DIRECTION('',(0.,0.,1.));
#385=DIRECTION('center_axis',(-1.,0.,0.));
#386=DIRECTION('ref_axis',(0.,-0.707106781186534,-0.707106781186561));
#387=DIRECTION('',(1.,0.,0.));
#388=DIRECTION('',(-1.,0.,0.));
#389=DIRECTION('center_axis',(-0.40824829046386,-0.816496580927729,-0.40824829046386));
#390=DIRECTION('ref_axis',(-0.577350269189616,0.577350269189627,-0.577350269189635));
#391=DIRECTION('center_axis',(0.,1.,0.));
#392=DIRECTION('ref_axis',(-1.,0.,0.));
#393=DIRECTION('center_axis',(0.,0.,-1.));
#394=DIRECTION('ref_axis',(0.,1.,0.));
#395=DIRECTION('center_axis',(-1.,0.,0.));
#396=DIRECTION('ref_axis',(0.,0.,-1.));
#397=DIRECTION('center_axis',(0.,0.,-1.));
#398=DIRECTION('ref_axis',(-0.707106781186544,0.707106781186551,0.));
#399=DIRECTION('',(0.,0.,-1.));
#400=DIRECTION('',(0.,0.,1.));
#401=DIRECTION('center_axis',(0.408248290463863,-0.816496580927726,-0.408248290463863));
#402=DIRECTION('ref_axis',(0.577350269189617,0.577350269189624,-0.577350269189636));
#403=DIRECTION('center_axis',(1.,0.,0.));
#404=DIRECTION('ref_axis',(0.,1.,0.));
#405=DIRECTION('center_axis',(0.,0.,-1.));
#406=DIRECTION('ref_axis',(1.,0.,0.));
#407=DIRECTION('center_axis',(0.,1.,0.));
#408=DIRECTION('ref_axis',(0.,0.,-1.));
#409=DIRECTION('center_axis',(0.,0.,-1.));
#410=DIRECTION('ref_axis',(0.707106781186544,0.707106781186551,0.));
#411=DIRECTION('',(0.,0.,-1.));
#412=DIRECTION('',(0.,0.,1.));
#413=DIRECTION('center_axis',(0.,-1.,0.));
#414=DIRECTION('ref_axis',(0.707106781186531,0.,-0.707106781186564));
#415=DIRECTION('',(0.,1.,0.));
#416=DIRECTION('',(0.,-1.,0.));
#417=DIRECTION('center_axis',(1.,0.,0.));
#418=DIRECTION('ref_axis',(0.,0.707106781186534,-0.707106781186561));
#419=DIRECTION('',(-1.,0.,0.));
#420=DIRECTION('',(1.,0.,0.));
#421=DIRECTION('center_axis',(0.,1.,0.));
#422=DIRECTION('ref_axis',(-0.707106781186531,0.,-0.707106781186564));
#423=DIRECTION('',(0.,-1.,0.));
#424=DIRECTION('',(0.,1.,0.));
#425=DIRECTION('center_axis',(0.,-1.,0.));
#426=DIRECTION('ref_axis',(-1.,0.,0.));
#427=DIRECTION('center_axis',(1.,0.,0.));
#428=DIRECTION('ref_axis',(0.,-1.,0.));
#429=DIRECTION('center_axis',(-1.,0.,0.));
#430=DIRECTION('ref_axis',(0.,1.,0.));
#431=DIRECTION('center_axis',(0.,0.,-1.));
#432=DIRECTION('ref_axis',(-1.,0.,0.));
#433=DIRECTION('center_axis',(-1.,0.,0.));
#434=DIRECTION('ref_axis',(0.,1.,0.));
#435=DIRECTION('',(-1.,0.,0.));
#436=DIRECTION('center_axis',(1.,0.,0.));
#437=DIRECTION('ref_axis',(0.,1.,0.));
#438=DIRECTION('center_axis',(-1.,0.,0.));
#439=DIRECTION('ref_axis',(0.,1.,0.));
#440=DIRECTION('center_axis',(0.,1.,0.));
#441=DIRECTION('ref_axis',(1.,0.,0.));
#442=CARTESIAN_POINT('',(0.,0.,0.));
#443=CARTESIAN_POINT('Origin',(-164.5,1.77635683940025E-14,217.972));
#444=CARTESIAN_POINT('',(-167.,-2.49999999999998,217.972));
#445=CARTESIAN_POINT('',(-165.5,-3.99999999999998,217.972));
#446=CARTESIAN_POINT('Origin',(-165.5,-2.49999999999998,217.972));
#447=CARTESIAN_POINT('',(-163.5,-3.99999999999998,217.972));
#448=CARTESIAN_POINT('',(-167.,-3.99999999999998,217.972));
#449=CARTESIAN_POINT('',(-162.,-2.49999999999998,217.972));
#450=CARTESIAN_POINT('Origin',(-163.5,-2.49999999999998,217.972));
#451=CARTESIAN_POINT('',(-162.,2.50000000000002,217.972));
#452=CARTESIAN_POINT('',(-162.,-3.99999999999998,217.972));
#453=CARTESIAN_POINT('',(-163.5,4.00000000000002,217.972));
#454=CARTESIAN_POINT('Origin',(-163.5,2.50000000000002,217.972));
#455=CARTESIAN_POINT('',(-165.5,4.00000000000002,217.972));
#456=CARTESIAN_POINT('',(-162.,4.00000000000002,217.972));
#457=CARTESIAN_POINT('',(-167.,2.50000000000002,217.972));
#458=CARTESIAN_POINT('Origin',(-165.5,2.50000000000002,217.972));
#459=CARTESIAN_POINT('',(-167.,4.00000000000002,217.972));
#460=CARTESIAN_POINT('Origin',(-165.5,-2.49999999999998,209.972));
#461=CARTESIAN_POINT('',(-165.5,-3.99999999999998,209.972));
#462=CARTESIAN_POINT('',(-165.5,-2.49999999999998,208.472));
#463=CARTESIAN_POINT('Origin',(-165.5,-2.49999999999998,209.972));
#464=CARTESIAN_POINT('',(-167.,-2.49999999999998,209.972));
#465=CARTESIAN_POINT('Origin',(-165.5,-2.49999999999998,209.972));
#466=CARTESIAN_POINT('Origin',(-165.5,-2.49999999999998,209.972));
#467=CARTESIAN_POINT('Origin',(-165.5,-2.49999999999998,215.472));
#468=CARTESIAN_POINT('',(-167.,-2.49999999999998,215.472));
#469=CARTESIAN_POINT('',(-165.5,-3.99999999999998,215.472));
#470=CARTESIAN_POINT('Origin',(-163.5,-2.49999999999998,209.972));
#471=CARTESIAN_POINT('',(-162.,-2.49999999999998,209.972));
#472=CARTESIAN_POINT('',(-163.5,-2.49999999999998,208.472));
#473=CARTESIAN_POINT('Origin',(-163.5,-2.49999999999998,209.972));
#474=CARTESIAN_POINT('',(-163.5,-3.99999999999998,209.972));
#475=CARTESIAN_POINT('Origin',(-163.5,-2.49999999999998,209.972));
#476=CARTESIAN_POINT('Origin',(-163.5,-2.49999999999998,209.972));
#477=CARTESIAN_POINT('Origin',(-163.5,-2.49999999999998,215.472));
#478=CARTESIAN_POINT('',(-163.5,-3.99999999999998,215.472));
#479=CARTESIAN_POINT('',(-162.,-2.49999999999998,215.472));
#480=CARTESIAN_POINT('Origin',(-163.25,-2.49999999999998,209.972));
#481=CARTESIAN_POINT('',(-163.25,-2.49999999999998,208.472));
#482=CARTESIAN_POINT('',(-163.25,-3.99999999999998,209.972));
#483=CARTESIAN_POINT('Origin',(-165.5,2.50000000000002,209.972));
#484=CARTESIAN_POINT('',(-167.,2.50000000000002,209.972));
#485=CARTESIAN_POINT('',(-165.5,2.50000000000002,208.472));
#486=CARTESIAN_POINT('Origin',(-165.5,2.50000000000002,209.972));
#487=CARTESIAN_POINT('',(-165.5,4.00000000000002,209.972));
#488=CARTESIAN_POINT('Origin',(-165.5,2.50000000000002,209.972));
#489=CARTESIAN_POINT('Origin',(-165.5,2.50000000000002,209.972));
#490=CARTESIAN_POINT('Origin',(-165.5,2.50000000000002,215.472));
#491=CARTESIAN_POINT('',(-165.5,4.00000000000002,215.472));
#492=CARTESIAN_POINT('',(-167.,2.50000000000002,215.472));
#493=CARTESIAN_POINT('Origin',(-163.5,2.50000000000002,209.972));
#494=CARTESIAN_POINT('',(-163.5,4.00000000000002,209.972));
#495=CARTESIAN_POINT('',(-163.5,2.50000000000002,208.472));
#496=CARTESIAN_POINT('Origin',(-163.5,2.50000000000002,209.972));
#497=CARTESIAN_POINT('',(-162.,2.50000000000002,209.972));
#498=CARTESIAN_POINT('Origin',(-163.5,2.50000000000002,209.972));
#499=CARTESIAN_POINT('Origin',(-163.5,2.50000000000002,209.972));
#500=CARTESIAN_POINT('Origin',(-163.5,2.50000000000002,215.472));
#501=CARTESIAN_POINT('',(-162.,2.50000000000002,215.472));
#502=CARTESIAN_POINT('',(-163.5,4.00000000000002,215.472));
#503=CARTESIAN_POINT('Origin',(-163.5,2.00000000000002,209.972));
#504=CARTESIAN_POINT('',(-163.5,2.00000000000002,208.472));
#505=CARTESIAN_POINT('',(-162.,2.00000000000002,209.972));
#506=CARTESIAN_POINT('Origin',(-165.75,2.50000000000002,209.972));
#507=CARTESIAN_POINT('',(-165.75,2.50000000000002,208.472));
#508=CARTESIAN_POINT('',(-165.75,4.00000000000002,209.972));
#509=CARTESIAN_POINT('Origin',(-165.5,-1.99999999999998,209.972));
#510=CARTESIAN_POINT('',(-165.5,-1.99999999999998,208.472));
#511=CARTESIAN_POINT('',(-167.,-1.99999999999998,209.972));
#512=CARTESIAN_POINT('Origin',(-162.,-3.99999999999998,215.472));
#513=CARTESIAN_POINT('Origin',(-162.,4.00000000000002,215.472));
#514=CARTESIAN_POINT('',(-162.,-1.6883581461009,211.972));
#515=CARTESIAN_POINT('Origin',(-162.,0.0116418538991048,211.972));
#516=CARTESIAN_POINT('Origin',(-164.5,1.77635683940025E-14,208.472));
#517=CARTESIAN_POINT('Origin',(-153.,0.0116418538991048,211.972));
#518=CARTESIAN_POINT('',(-167.,-1.6883581461009,211.972));
#519=CARTESIAN_POINT('',(-153.,-1.6883581461009,211.972));
#520=CARTESIAN_POINT('Origin',(-167.,0.0116418538991048,211.972));
#521=CARTESIAN_POINT('Origin',(-167.,-3.99999999999998,215.472));
#522=CARTESIAN_POINT('Origin',(-167.,4.00000000000002,215.472));
#523=UNCERTAINTY_MEASURE_WITH_UNIT(LENGTH_MEASURE(0.01),#527,
'DISTANCE_ACCURACY_VALUE',
'Maximum model space distance between geometric entities at asserted c
onnectivities');
#524=UNCERTAINTY_MEASURE_WITH_UNIT(LENGTH_MEASURE(0.01),#527,
'DISTANCE_ACCURACY_VALUE',
'Maximum model space distance between geometric entities at asserted c
onnectivities');
#525=(
GEOMETRIC_REPRESENTATION_CONTEXT(3)
GLOBAL_UNCERTAINTY_ASSIGNED_CONTEXT((#523))
GLOBAL_UNIT_ASSIGNED_CONTEXT((#527,#529,#530))
REPRESENTATION_CONTEXT('','3D')
);
#526=(
GEOMETRIC_REPRESENTATION_CONTEXT(3)
GLOBAL_UNCERTAINTY_ASSIGNED_CONTEXT((#524))
GLOBAL_UNIT_ASSIGNED_CONTEXT((#527,#529,#530))
REPRESENTATION_CONTEXT('','3D')
);
#527=(
LENGTH_UNIT()
NAMED_UNIT(*)
SI_UNIT(.MILLI.,.METRE.)
);
#528=(
LENGTH_UNIT()
NAMED_UNIT(*)
SI_UNIT($,.METRE.)
);
#529=(
NAMED_UNIT(*)
PLANE_ANGLE_UNIT()
SI_UNIT($,.RADIAN.)
);
#530=(
NAMED_UNIT(*)
SI_UNIT($,.STERADIAN.)
SOLID_ANGLE_UNIT()
);
#531=SHAPE_DEFINITION_REPRESENTATION(#532,#533);
#532=PRODUCT_DEFINITION_SHAPE('',$,#535);
#533=SHAPE_REPRESENTATION('',(#307),#525);
#534=PRODUCT_DEFINITION_CONTEXT('part definition',#539,'design');
#535=PRODUCT_DEFINITION('2026-06-29-16-52-42-069','ROCKET_v1',#536,#534);
#536=PRODUCT_DEFINITION_FORMATION('',$,#541);
#537=PRODUCT_RELATED_PRODUCT_CATEGORY('ROCKET_v1','ROCKET_v1',(#541));
#538=APPLICATION_PROTOCOL_DEFINITION('international standard',
'automotive_design',2009,#539);
#539=APPLICATION_CONTEXT(
'Core Data for Automotive Mechanical Design Process');
#540=PRODUCT_CONTEXT('part definition',#539,'mechanical');
#541=PRODUCT('2026-06-29-16-52-42-069','ROCKET_v1',$,(#540));
#542=PRESENTATION_STYLE_ASSIGNMENT((#543));
#543=SURFACE_STYLE_USAGE(.BOTH.,#544);
#544=SURFACE_SIDE_STYLE('',(#545));
#545=SURFACE_STYLE_FILL_AREA(#546);
#546=FILL_AREA_STYLE('Steel - Satin',(#547));
#547=FILL_AREA_STYLE_COLOUR('Steel - Satin',#548);
#548=COLOUR_RGB('Steel - Satin',0.627450980392157,0.627450980392157,0.627450980392157);
ENDSEC;
END-ISO-10303-21;
